G04*
G04 #@! TF.GenerationSoftware,Altium Limited,Altium Designer,21.0.8 (223)*
G04*
G04 Layer_Color=255*
%FSLAX25Y25*%
%MOIN*%
G70*
G04*
G04 #@! TF.SameCoordinates,E0719600-9101-4F89-BDCF-51FE7D7513E6*
G04*
G04*
G04 #@! TF.FilePolarity,Positive*
G04*
G01*
G75*
%ADD11R,0.01417X0.00866*%
%ADD12R,0.00799X0.00898*%
D11*
X206000Y586266D02*
D03*
Y588747D02*
D03*
X194207Y586266D02*
D03*
Y588747D02*
D03*
D12*
X199255Y561875D02*
D03*
X200952D02*
D03*
X199255Y547465D02*
D03*
X200952D02*
D03*
X199255Y533054D02*
D03*
X200952D02*
D03*
X199255Y518644D02*
D03*
X200952D02*
D03*
X199255Y504233D02*
D03*
X200952D02*
D03*
X199255Y489823D02*
D03*
X200952D02*
D03*
X199255Y475413D02*
D03*
X200952D02*
D03*
X199255Y461002D02*
D03*
X200952D02*
D03*
X199255Y446592D02*
D03*
X200952D02*
D03*
X199255Y432181D02*
D03*
X200952D02*
D03*
X199255Y417771D02*
D03*
X200952D02*
D03*
X199255Y403360D02*
D03*
X200952D02*
D03*
X199255Y388950D02*
D03*
X200952D02*
D03*
X199255Y374539D02*
D03*
X200952D02*
D03*
X199255Y360129D02*
D03*
X200952D02*
D03*
X199255Y345718D02*
D03*
X200952D02*
D03*
X199255Y331308D02*
D03*
X200952D02*
D03*
X199255Y316898D02*
D03*
X200952D02*
D03*
X199255Y302487D02*
D03*
X200952D02*
D03*
X199255Y288076D02*
D03*
X200952D02*
D03*
X199255Y273666D02*
D03*
X200952D02*
D03*
X199255Y259256D02*
D03*
X200952D02*
D03*
X199255Y244845D02*
D03*
X200952D02*
D03*
X199255Y230435D02*
D03*
X200952D02*
D03*
X199255Y216024D02*
D03*
X200952D02*
D03*
X199255Y201614D02*
D03*
X200952D02*
D03*
X199255Y187203D02*
D03*
X200952D02*
D03*
X199255Y172793D02*
D03*
X200952D02*
D03*
M02*
