G04*
G04 #@! TF.GenerationSoftware,Altium Limited,Altium Designer,21.0.8 (223)*
G04*
G04 Layer_Physical_Order=2*
G04 Layer_Color=16711680*
%FSLAX25Y25*%
%MOIN*%
G70*
G04*
G04 #@! TF.SameCoordinates,E0719600-9101-4F89-BDCF-51FE7D7513E6*
G04*
G04*
G04 #@! TF.FilePolarity,Positive*
G04*
G01*
G75*
%ADD11R,0.01417X0.00866*%
%ADD21C,0.03543*%
%ADD22R,0.00898X0.00799*%
%ADD23R,0.00866X0.01417*%
G36*
X213426Y618423D02*
X209505D01*
Y613539D01*
X210490D01*
Y608421D01*
X204584D01*
Y613539D01*
X205568D01*
Y618423D01*
X203584D01*
Y632202D01*
X213426D01*
Y618423D01*
D02*
G37*
G36*
X196623D02*
X194653D01*
Y613539D01*
X195638D01*
Y608421D01*
X189732D01*
Y613539D01*
X190717D01*
Y618423D01*
X186781D01*
Y632202D01*
X196623D01*
Y618423D01*
D02*
G37*
G36*
X230230D02*
X224635D01*
Y613613D01*
X219230D01*
Y612298D01*
X224635D01*
Y609983D01*
X219230D01*
Y608668D01*
X224635D01*
Y606353D01*
X219230D01*
Y605038D01*
X224635D01*
Y602723D01*
X219230D01*
Y601408D01*
X224635D01*
Y599203D01*
X219230D01*
Y597888D01*
X224635D01*
Y595573D01*
X219230D01*
Y594258D01*
X224635D01*
Y591943D01*
X219230D01*
Y590628D01*
X224635D01*
Y589526D01*
X225094D01*
Y588462D01*
X223676D01*
Y589526D01*
X224135D01*
Y590128D01*
X218729D01*
Y592443D01*
X224135D01*
Y593758D01*
X218729D01*
Y596073D01*
X224135D01*
Y597388D01*
X218729D01*
Y599703D01*
X224135D01*
Y600908D01*
X218729D01*
Y603223D01*
X224135D01*
Y604538D01*
X218729D01*
Y606853D01*
X224135D01*
Y608168D01*
X218729D01*
Y610483D01*
X224135D01*
Y611798D01*
X218729D01*
Y614113D01*
X220698D01*
Y618423D01*
X220387D01*
Y632202D01*
X230230D01*
Y618423D01*
D02*
G37*
G36*
X179820D02*
X179509D01*
Y613964D01*
X181462D01*
Y611649D01*
X176057D01*
Y610334D01*
X181462D01*
Y608019D01*
X176057D01*
Y606704D01*
X181462D01*
Y604389D01*
X176057D01*
Y603074D01*
X181462D01*
Y600759D01*
X176057D01*
Y599554D01*
X181462D01*
Y597239D01*
X176057D01*
Y595924D01*
X181462D01*
Y593609D01*
X176057D01*
Y592294D01*
X181462D01*
Y589979D01*
X176057D01*
Y589376D01*
X176515D01*
Y588313D01*
X175098D01*
Y589376D01*
X175557D01*
Y590479D01*
X180962D01*
Y591794D01*
X175557D01*
Y594109D01*
X180962D01*
Y595424D01*
X175557D01*
Y597739D01*
X180962D01*
Y599054D01*
X175557D01*
Y601259D01*
X180962D01*
Y602574D01*
X175557D01*
Y604889D01*
X180962D01*
Y606204D01*
X175557D01*
Y608519D01*
X180962D01*
Y609834D01*
X175557D01*
Y612149D01*
X180962D01*
Y613464D01*
X175557D01*
Y614642D01*
X175572D01*
Y618423D01*
X169977D01*
Y632202D01*
X179820D01*
Y618423D01*
D02*
G37*
G36*
X225094Y585785D02*
X224635D01*
Y584793D01*
X219230D01*
Y583477D01*
X224635D01*
Y581163D01*
X219230D01*
Y579847D01*
X224635D01*
Y577532D01*
X219230D01*
Y576218D01*
X224635D01*
Y573903D01*
X219230D01*
Y572587D01*
X224635D01*
Y570382D01*
X219230D01*
Y569067D01*
X224635D01*
Y566752D01*
X219230D01*
Y565437D01*
X224635D01*
Y563122D01*
X219230D01*
Y561807D01*
X224635D01*
Y559492D01*
X219230D01*
Y558177D01*
X224635D01*
Y555972D01*
X219230D01*
Y554657D01*
X224635D01*
Y552342D01*
X219230D01*
Y551027D01*
X224635D01*
Y548712D01*
X219230D01*
Y547397D01*
X224635D01*
Y545082D01*
X219230D01*
Y543767D01*
X224635D01*
Y541561D01*
X219230D01*
Y540246D01*
X224635D01*
Y537931D01*
X219230D01*
Y536616D01*
X224635D01*
Y534301D01*
X219230D01*
Y532986D01*
X224635D01*
Y530671D01*
X219230D01*
Y529356D01*
X224635D01*
Y527151D01*
X219230D01*
Y525836D01*
X224635D01*
Y523521D01*
X219230D01*
Y522206D01*
X224635D01*
Y519891D01*
X219230D01*
Y518576D01*
X224635D01*
Y516261D01*
X219230D01*
Y514946D01*
X224635D01*
Y512740D01*
X219230D01*
Y511425D01*
X224635D01*
Y509110D01*
X219230D01*
Y507795D01*
X224635D01*
Y505480D01*
X219230D01*
Y504165D01*
X224635D01*
Y501850D01*
X219230D01*
Y500535D01*
X224635D01*
Y498330D01*
X219230D01*
Y497015D01*
X224635D01*
Y494700D01*
X219230D01*
Y493385D01*
X224635D01*
Y491070D01*
X219230D01*
Y489755D01*
X224635D01*
Y487440D01*
X219230D01*
Y486125D01*
X224635D01*
Y483919D01*
X219230D01*
Y482604D01*
X224635D01*
Y480289D01*
X219230D01*
Y478974D01*
X224635D01*
Y476659D01*
X219230D01*
Y475344D01*
X224635D01*
Y473029D01*
X219230D01*
Y471714D01*
X224635D01*
Y469509D01*
X219230D01*
Y468194D01*
X224635D01*
Y465879D01*
X219230D01*
Y464564D01*
X224635D01*
Y462249D01*
X219230D01*
Y460934D01*
X224635D01*
Y458619D01*
X219230D01*
Y457304D01*
X224635D01*
Y455098D01*
X219230D01*
Y453783D01*
X224635D01*
Y451468D01*
X219230D01*
Y450153D01*
X224635D01*
Y447838D01*
X219230D01*
Y446523D01*
X224635D01*
Y444208D01*
X219230D01*
Y442893D01*
X224635D01*
Y440688D01*
X219230D01*
Y439373D01*
X224635D01*
Y437058D01*
X219230D01*
Y435743D01*
X224635D01*
Y433428D01*
X219230D01*
Y432113D01*
X224635D01*
Y429798D01*
X219230D01*
Y428483D01*
X224635D01*
Y426277D01*
X219230D01*
Y424962D01*
X224635D01*
Y422647D01*
X219230D01*
Y421332D01*
X224635D01*
Y419017D01*
X219230D01*
Y417702D01*
X224635D01*
Y415387D01*
X219230D01*
Y414072D01*
X224635D01*
Y411867D01*
X219230D01*
Y410552D01*
X224635D01*
Y408237D01*
X219230D01*
Y406922D01*
X224635D01*
Y404607D01*
X219230D01*
Y403292D01*
X224635D01*
Y400977D01*
X219230D01*
Y399662D01*
X224635D01*
Y397457D01*
X219230D01*
Y396142D01*
X224635D01*
Y393827D01*
X219230D01*
Y392512D01*
X224635D01*
Y390196D01*
X219230D01*
Y388881D01*
X224635D01*
Y386566D01*
X219230D01*
Y385251D01*
X224635D01*
Y383046D01*
X219230D01*
Y381731D01*
X224635D01*
Y379416D01*
X219230D01*
Y378101D01*
X224635D01*
Y375786D01*
X219230D01*
Y374471D01*
X224635D01*
Y372156D01*
X219230D01*
Y370841D01*
X224635D01*
Y368636D01*
X219230D01*
Y367321D01*
X224635D01*
Y365006D01*
X219230D01*
Y363691D01*
X224635D01*
Y361376D01*
X219230D01*
Y360061D01*
X224635D01*
Y357746D01*
X219230D01*
Y356431D01*
X224635D01*
Y354225D01*
X219230D01*
Y352910D01*
X224635D01*
Y350595D01*
X219230D01*
Y349280D01*
X224635D01*
Y346965D01*
X219230D01*
Y345650D01*
X224635D01*
Y343335D01*
X219230D01*
Y342020D01*
X224635D01*
Y339815D01*
X219230D01*
Y338500D01*
X224635D01*
Y336185D01*
X219230D01*
Y334870D01*
X224635D01*
Y332555D01*
X219230D01*
Y331240D01*
X224635D01*
Y328925D01*
X219230D01*
Y327610D01*
X224635D01*
Y325404D01*
X219230D01*
Y324089D01*
X224635D01*
Y321774D01*
X219230D01*
Y320459D01*
X224635D01*
Y318144D01*
X219230D01*
Y316829D01*
X224635D01*
Y314514D01*
X219230D01*
Y313199D01*
X224635D01*
Y310994D01*
X219230D01*
Y309679D01*
X224635D01*
Y307364D01*
X219230D01*
Y306049D01*
X224635D01*
Y303734D01*
X219230D01*
Y302419D01*
X224635D01*
Y300104D01*
X219230D01*
Y298789D01*
X224635D01*
Y296583D01*
X219230D01*
Y295268D01*
X224635D01*
Y292953D01*
X219230D01*
Y291638D01*
X224635D01*
Y289323D01*
X219230D01*
Y288008D01*
X224635D01*
Y285693D01*
X219230D01*
Y284378D01*
X224635D01*
Y282173D01*
X219230D01*
Y280858D01*
X224635D01*
Y278543D01*
X219230D01*
Y277228D01*
X224635D01*
Y274913D01*
X219230D01*
Y273598D01*
X224635D01*
Y271283D01*
X219230D01*
Y269968D01*
X224635D01*
Y267762D01*
X219230D01*
Y266447D01*
X224635D01*
Y264132D01*
X219230D01*
Y262817D01*
X224635D01*
Y260502D01*
X219230D01*
Y259187D01*
X224635D01*
Y256872D01*
X219230D01*
Y255557D01*
X224635D01*
Y253352D01*
X219230D01*
Y252037D01*
X224635D01*
Y249722D01*
X219230D01*
Y248407D01*
X224635D01*
Y246092D01*
X219230D01*
Y244777D01*
X224635D01*
Y242462D01*
X219230D01*
Y241147D01*
X224635D01*
Y238941D01*
X219230D01*
Y237627D01*
X224635D01*
Y235312D01*
X219230D01*
Y233997D01*
X224635D01*
Y231681D01*
X219230D01*
Y230366D01*
X224635D01*
Y228051D01*
X219230D01*
Y226736D01*
X224635D01*
Y224531D01*
X219230D01*
Y223216D01*
X224635D01*
Y220901D01*
X219230D01*
Y219586D01*
X224635D01*
Y217271D01*
X219230D01*
Y215956D01*
X224635D01*
Y213641D01*
X219230D01*
Y212326D01*
X224635D01*
Y210121D01*
X219230D01*
Y208805D01*
X224635D01*
Y206490D01*
X219230D01*
Y205175D01*
X224635D01*
Y202860D01*
X219230D01*
Y201546D01*
X224635D01*
Y199231D01*
X219230D01*
Y197915D01*
X224635D01*
Y195710D01*
X219230D01*
Y194395D01*
X224635D01*
Y192080D01*
X219230D01*
Y190765D01*
X224635D01*
Y188450D01*
X219230D01*
Y187135D01*
X224635D01*
Y184820D01*
X219230D01*
Y183505D01*
X224635D01*
Y181300D01*
X219230D01*
Y179485D01*
X204118D01*
Y179026D01*
X203252D01*
Y180443D01*
X204118D01*
Y179985D01*
X218729D01*
Y181800D01*
X224135D01*
Y183005D01*
X218729D01*
Y185320D01*
X224135D01*
Y186635D01*
X218729D01*
Y188950D01*
X224135D01*
Y190265D01*
X218729D01*
Y192580D01*
X224135D01*
Y193895D01*
X204118D01*
Y193436D01*
X203252D01*
Y194854D01*
X204118D01*
Y194395D01*
X218729D01*
Y196210D01*
X224135D01*
Y197415D01*
X218729D01*
Y199731D01*
X224135D01*
Y201045D01*
X218729D01*
Y203361D01*
X224135D01*
Y204676D01*
X218729D01*
Y206991D01*
X224135D01*
Y208306D01*
X204118D01*
Y207847D01*
X203252D01*
Y209264D01*
X204118D01*
Y208805D01*
X218729D01*
Y210620D01*
X224135D01*
Y211826D01*
X218729D01*
Y214141D01*
X224135D01*
Y215456D01*
X218729D01*
Y217771D01*
X224135D01*
Y219086D01*
X218729D01*
Y221401D01*
X224135D01*
Y222716D01*
X204118D01*
Y222257D01*
X203252D01*
Y223675D01*
X204118D01*
Y223216D01*
X218729D01*
Y225031D01*
X224135D01*
Y226237D01*
X218729D01*
Y228552D01*
X224135D01*
Y229866D01*
X218729D01*
Y232181D01*
X224135D01*
Y233496D01*
X218729D01*
Y235811D01*
X224135D01*
Y237126D01*
X204118D01*
Y236668D01*
X203252D01*
Y238085D01*
X204118D01*
Y237627D01*
X218729D01*
Y239441D01*
X224135D01*
Y240647D01*
X218729D01*
Y242962D01*
X224135D01*
Y244277D01*
X218729D01*
Y246592D01*
X224135D01*
Y247907D01*
X218729D01*
Y250222D01*
X224135D01*
Y251537D01*
X204118D01*
Y251078D01*
X203252D01*
Y252496D01*
X204118D01*
Y252037D01*
X218729D01*
Y253852D01*
X224135D01*
Y255057D01*
X218729D01*
Y257372D01*
X224135D01*
Y258687D01*
X218729D01*
Y261002D01*
X224135D01*
Y262317D01*
X218729D01*
Y264632D01*
X224135D01*
Y265947D01*
X204118D01*
Y265489D01*
X203252D01*
Y266906D01*
X204118D01*
Y266447D01*
X218729D01*
Y268262D01*
X224135D01*
Y269468D01*
X218729D01*
Y271783D01*
X224135D01*
Y273098D01*
X218729D01*
Y275413D01*
X224135D01*
Y276728D01*
X218729D01*
Y279043D01*
X224135D01*
Y280358D01*
X204118D01*
Y279899D01*
X203252D01*
Y281316D01*
X204118D01*
Y280858D01*
X218729D01*
Y282673D01*
X224135D01*
Y283878D01*
X218729D01*
Y286193D01*
X224135D01*
Y287508D01*
X218729D01*
Y289823D01*
X224135D01*
Y291138D01*
X218729D01*
Y293453D01*
X224135D01*
Y294768D01*
X204118D01*
Y294310D01*
X203252D01*
Y295727D01*
X204118D01*
Y295268D01*
X218729D01*
Y297083D01*
X224135D01*
Y298289D01*
X218729D01*
Y300604D01*
X224135D01*
Y301919D01*
X218729D01*
Y304234D01*
X224135D01*
Y305549D01*
X218729D01*
Y307864D01*
X224135D01*
Y309179D01*
X204118D01*
Y308720D01*
X203252D01*
Y310137D01*
X204118D01*
Y309679D01*
X218729D01*
Y311494D01*
X224135D01*
Y312699D01*
X218729D01*
Y315014D01*
X224135D01*
Y316329D01*
X218729D01*
Y318644D01*
X224135D01*
Y319959D01*
X218729D01*
Y322274D01*
X224135D01*
Y323589D01*
X204118D01*
Y323130D01*
X203252D01*
Y324548D01*
X204118D01*
Y324089D01*
X218729D01*
Y325904D01*
X224135D01*
Y327110D01*
X218729D01*
Y329425D01*
X224135D01*
Y330740D01*
X218729D01*
Y333055D01*
X224135D01*
Y334370D01*
X218729D01*
Y336685D01*
X224135D01*
Y338000D01*
X204118D01*
Y337541D01*
X203252D01*
Y338958D01*
X204118D01*
Y338500D01*
X218729D01*
Y340315D01*
X224135D01*
Y341520D01*
X218729D01*
Y343835D01*
X224135D01*
Y345150D01*
X218729D01*
Y347465D01*
X224135D01*
Y348780D01*
X218729D01*
Y351095D01*
X224135D01*
Y352410D01*
X204118D01*
Y351952D01*
X203252D01*
Y353369D01*
X204118D01*
Y352910D01*
X218729D01*
Y354725D01*
X224135D01*
Y355931D01*
X218729D01*
Y358246D01*
X224135D01*
Y359561D01*
X218729D01*
Y361876D01*
X224135D01*
Y363191D01*
X218729D01*
Y365506D01*
X224135D01*
Y366821D01*
X204118D01*
Y366362D01*
X203252D01*
Y367779D01*
X204118D01*
Y367321D01*
X218729D01*
Y369136D01*
X224135D01*
Y370341D01*
X218729D01*
Y372656D01*
X224135D01*
Y373971D01*
X218729D01*
Y376286D01*
X224135D01*
Y377601D01*
X218729D01*
Y379916D01*
X224135D01*
Y381231D01*
X204118D01*
Y380772D01*
X203252D01*
Y382190D01*
X204118D01*
Y381731D01*
X218729D01*
Y383546D01*
X224135D01*
Y384752D01*
X218729D01*
Y387067D01*
X224135D01*
Y388382D01*
X218729D01*
Y390697D01*
X224135D01*
Y392011D01*
X218729D01*
Y394326D01*
X224135D01*
Y395641D01*
X204118D01*
Y395183D01*
X203252D01*
Y396600D01*
X204118D01*
Y396142D01*
X218729D01*
Y397956D01*
X224135D01*
Y399162D01*
X218729D01*
Y401477D01*
X224135D01*
Y402792D01*
X218729D01*
Y405107D01*
X224135D01*
Y406422D01*
X218729D01*
Y408737D01*
X224135D01*
Y410052D01*
X204118D01*
Y409593D01*
X203252D01*
Y411011D01*
X204118D01*
Y410552D01*
X218729D01*
Y412367D01*
X224135D01*
Y413572D01*
X218729D01*
Y415887D01*
X224135D01*
Y417202D01*
X218729D01*
Y419517D01*
X224135D01*
Y420832D01*
X218729D01*
Y423147D01*
X224135D01*
Y424462D01*
X204118D01*
Y424004D01*
X203252D01*
Y425421D01*
X204118D01*
Y424962D01*
X218729D01*
Y426777D01*
X224135D01*
Y427983D01*
X218729D01*
Y430298D01*
X224135D01*
Y431613D01*
X218729D01*
Y433928D01*
X224135D01*
Y435243D01*
X218729D01*
Y437558D01*
X224135D01*
Y438873D01*
X204118D01*
Y438414D01*
X203252D01*
Y439831D01*
X204118D01*
Y439373D01*
X218729D01*
Y441188D01*
X224135D01*
Y442393D01*
X218729D01*
Y444708D01*
X224135D01*
Y446023D01*
X218729D01*
Y448338D01*
X224135D01*
Y449653D01*
X218729D01*
Y451968D01*
X224135D01*
Y453283D01*
X204118D01*
Y452825D01*
X203252D01*
Y454242D01*
X204118D01*
Y453783D01*
X218729D01*
Y455598D01*
X224135D01*
Y456804D01*
X218729D01*
Y459119D01*
X224135D01*
Y460434D01*
X218729D01*
Y462749D01*
X224135D01*
Y464064D01*
X218729D01*
Y466379D01*
X224135D01*
Y467694D01*
X204118D01*
Y467235D01*
X203252D01*
Y468652D01*
X204118D01*
Y468194D01*
X218729D01*
Y470009D01*
X224135D01*
Y471214D01*
X218729D01*
Y473529D01*
X224135D01*
Y474844D01*
X218729D01*
Y477159D01*
X224135D01*
Y478474D01*
X218729D01*
Y480789D01*
X224135D01*
Y482104D01*
X204118D01*
Y481646D01*
X203252D01*
Y483063D01*
X204118D01*
Y482604D01*
X218729D01*
Y484419D01*
X224135D01*
Y485625D01*
X218729D01*
Y487940D01*
X224135D01*
Y489255D01*
X218729D01*
Y491570D01*
X224135D01*
Y492885D01*
X218729D01*
Y495200D01*
X224135D01*
Y496515D01*
X204118D01*
Y496056D01*
X203252D01*
Y497473D01*
X204118D01*
Y497015D01*
X218729D01*
Y498830D01*
X224135D01*
Y500035D01*
X218729D01*
Y502350D01*
X224135D01*
Y503665D01*
X218729D01*
Y505980D01*
X224135D01*
Y507295D01*
X218729D01*
Y509610D01*
X224135D01*
Y510925D01*
X204118D01*
Y510466D01*
X203252D01*
Y511884D01*
X204118D01*
Y511425D01*
X218729D01*
Y513240D01*
X224135D01*
Y514446D01*
X218729D01*
Y516761D01*
X224135D01*
Y518076D01*
X218729D01*
Y520391D01*
X224135D01*
Y521706D01*
X218729D01*
Y524021D01*
X224135D01*
Y525336D01*
X204118D01*
Y524877D01*
X203252D01*
Y526294D01*
X204118D01*
Y525836D01*
X218729D01*
Y527651D01*
X224135D01*
Y528856D01*
X218729D01*
Y531171D01*
X224135D01*
Y532486D01*
X218729D01*
Y534801D01*
X224135D01*
Y536116D01*
X218729D01*
Y538431D01*
X224135D01*
Y539746D01*
X204118D01*
Y539287D01*
X203252D01*
Y540705D01*
X204118D01*
Y540246D01*
X218729D01*
Y542061D01*
X224135D01*
Y543267D01*
X218729D01*
Y545582D01*
X224135D01*
Y546897D01*
X218729D01*
Y549212D01*
X224135D01*
Y550527D01*
X218729D01*
Y552842D01*
X224135D01*
Y554157D01*
X204118D01*
Y553698D01*
X203252D01*
Y555115D01*
X204118D01*
Y554657D01*
X218729D01*
Y556472D01*
X224135D01*
Y557677D01*
X218729D01*
Y559992D01*
X224135D01*
Y561307D01*
X218729D01*
Y563622D01*
X224135D01*
Y564937D01*
X218729D01*
Y567252D01*
X224135D01*
Y568567D01*
X204118D01*
Y568108D01*
X203252D01*
Y569526D01*
X204118D01*
Y569067D01*
X218729D01*
Y570882D01*
X224135D01*
Y572087D01*
X218729D01*
Y574403D01*
X224135D01*
Y575717D01*
X218729D01*
Y578032D01*
X224135D01*
Y579348D01*
X218729D01*
Y581663D01*
X224135D01*
Y582977D01*
X218729D01*
Y585292D01*
X224135D01*
Y585785D01*
X223676D01*
Y586848D01*
X225094D01*
Y585785D01*
D02*
G37*
G36*
X201638Y568108D02*
X200772D01*
Y568567D01*
X200354D01*
Y567673D01*
X200667Y567650D01*
X201275Y567493D01*
X201845Y567230D01*
X202359Y566869D01*
X202800Y566422D01*
X203154Y565903D01*
X203409Y565329D01*
X203556Y564718D01*
X203574Y564405D01*
X202372Y564405D01*
X202372D01*
X202315Y564746D01*
X202052Y565383D01*
X201609Y565913D01*
X201029Y566285D01*
X200704Y566401D01*
Y564654D01*
X199504D01*
Y566401D01*
X199178Y566285D01*
X198598Y565913D01*
X198155Y565383D01*
X197892Y564746D01*
X197835Y564405D01*
X196632D01*
X196632Y564405D01*
X196651Y564718D01*
X196798Y565329D01*
X197053Y565903D01*
X197407Y566422D01*
X197848Y566869D01*
X198362Y567230D01*
X198932Y567493D01*
X199540Y567650D01*
X199854Y567673D01*
X199854Y569067D01*
X200772D01*
Y569526D01*
X201638D01*
Y568108D01*
D02*
G37*
G36*
X203556Y563691D02*
X203409Y563081D01*
X203154Y562507D01*
X202800Y561988D01*
X202359Y561541D01*
X201845Y561179D01*
X201275Y560916D01*
X200667Y560760D01*
X200354Y560737D01*
Y559343D01*
X199435D01*
Y558884D01*
X198569D01*
Y560302D01*
X199435D01*
Y559843D01*
X199854D01*
Y560737D01*
X199854Y560737D01*
X199540Y560760D01*
X198932Y560916D01*
X198362Y561179D01*
X197848Y561541D01*
X197407Y561988D01*
X197053Y562507D01*
X196798Y563081D01*
X196651Y563691D01*
X196632Y564005D01*
X197835D01*
Y564005D01*
X197892Y563664D01*
X198155Y563027D01*
X198598Y562497D01*
X199178Y562125D01*
X199504Y562009D01*
Y563756D01*
X200704D01*
Y562009D01*
X200704Y562009D01*
X200704D01*
X200704D01*
D01*
X201029Y562125D01*
X201609Y562497D01*
X202052Y563027D01*
X202315Y563664D01*
X202372Y564005D01*
X203574Y564005D01*
X203556Y563691D01*
D02*
G37*
G36*
X176515Y585636D02*
X176057D01*
Y585143D01*
X181462D01*
Y582828D01*
X176057D01*
Y581513D01*
X181462D01*
Y579198D01*
X176057D01*
Y577883D01*
X181462D01*
Y575568D01*
X176057D01*
Y574253D01*
X181462D01*
Y571938D01*
X176057D01*
Y570733D01*
X181462D01*
Y568418D01*
X176057D01*
Y567103D01*
X181462D01*
Y564788D01*
X176057D01*
Y563473D01*
X181462D01*
Y561158D01*
X176057D01*
Y559843D01*
X196089D01*
Y560302D01*
X196955D01*
Y558884D01*
X196089D01*
Y559343D01*
X181462D01*
Y557528D01*
X176057D01*
Y556322D01*
X181462D01*
Y554007D01*
X176057D01*
Y552693D01*
X181462D01*
Y550378D01*
X176057D01*
Y549062D01*
X181462D01*
Y546747D01*
X176057D01*
Y545432D01*
X196089D01*
Y545891D01*
X196955D01*
Y544474D01*
X196089D01*
Y544932D01*
X181462D01*
Y543118D01*
X176057D01*
Y541912D01*
X181462D01*
Y539597D01*
X176057D01*
Y538282D01*
X181462D01*
Y535967D01*
X176057D01*
Y534652D01*
X181462D01*
Y532337D01*
X176057D01*
Y531022D01*
X196089D01*
Y531481D01*
X196955D01*
Y530063D01*
X196089D01*
Y530522D01*
X181462D01*
Y528707D01*
X176057D01*
Y527501D01*
X181462D01*
Y525186D01*
X176057D01*
Y523872D01*
X181462D01*
Y521557D01*
X176057D01*
Y520241D01*
X181462D01*
Y517927D01*
X176057D01*
Y516611D01*
X196089D01*
Y517070D01*
X196955D01*
Y515653D01*
X196089D01*
Y516112D01*
X181462D01*
Y514296D01*
X176057D01*
Y513091D01*
X181462D01*
Y510776D01*
X176057D01*
Y509461D01*
X181462D01*
Y507146D01*
X176057D01*
Y505831D01*
X181462D01*
Y503516D01*
X176057D01*
Y502201D01*
X196089D01*
Y502660D01*
X196955D01*
Y501242D01*
X196089D01*
Y501701D01*
X181462D01*
Y499886D01*
X176057D01*
Y498681D01*
X181462D01*
Y496366D01*
X176057D01*
Y495051D01*
X181462D01*
Y492736D01*
X176057D01*
Y491421D01*
X181462D01*
Y489106D01*
X176057D01*
Y487791D01*
X196089D01*
Y488249D01*
X196955D01*
Y486832D01*
X196089D01*
Y487291D01*
X181462D01*
Y485476D01*
X176057D01*
Y484270D01*
X181462D01*
Y481955D01*
X176057D01*
Y480640D01*
X181462D01*
Y478325D01*
X176057D01*
Y477010D01*
X181462D01*
Y474695D01*
X176057D01*
Y473380D01*
X196089D01*
Y473839D01*
X196955D01*
Y472422D01*
X196089D01*
Y472880D01*
X181462D01*
Y471065D01*
X176057D01*
Y469860D01*
X181462D01*
Y467545D01*
X176057D01*
Y466230D01*
X181462D01*
Y463915D01*
X176057D01*
Y462600D01*
X181462D01*
Y460285D01*
X176057D01*
Y458970D01*
X196089D01*
Y459428D01*
X196955D01*
Y458011D01*
X196089D01*
Y458470D01*
X181462D01*
Y456655D01*
X176057D01*
Y455449D01*
X181462D01*
Y453134D01*
X176057D01*
Y451819D01*
X181462D01*
Y449504D01*
X176057D01*
Y448189D01*
X181462D01*
Y445874D01*
X176057D01*
Y444559D01*
X196089D01*
Y445018D01*
X196955D01*
Y443601D01*
X196089D01*
Y444059D01*
X181462D01*
Y442244D01*
X176057D01*
Y441039D01*
X181462D01*
Y438724D01*
X176057D01*
Y437409D01*
X181462D01*
Y435094D01*
X176057D01*
Y433779D01*
X181462D01*
Y431464D01*
X176057D01*
Y430149D01*
X196089D01*
Y430607D01*
X196955D01*
Y429190D01*
X196089D01*
Y429649D01*
X181462D01*
Y427834D01*
X176057D01*
Y426628D01*
X181462D01*
Y424313D01*
X176057D01*
Y422998D01*
X181462D01*
Y420683D01*
X176057D01*
Y419368D01*
X181462D01*
Y417053D01*
X176057D01*
Y415738D01*
X196089D01*
Y416197D01*
X196955D01*
Y414780D01*
X196089D01*
Y415238D01*
X181462D01*
Y413423D01*
X176057D01*
Y412218D01*
X181462D01*
Y409903D01*
X176057D01*
Y408588D01*
X181462D01*
Y406273D01*
X176057D01*
Y404958D01*
X181462D01*
Y402643D01*
X176057D01*
Y401328D01*
X196089D01*
Y401787D01*
X196955D01*
Y400369D01*
X196089D01*
Y400828D01*
X181462D01*
Y399013D01*
X176057D01*
Y397807D01*
X181462D01*
Y395492D01*
X176057D01*
Y394177D01*
X181462D01*
Y391862D01*
X176057D01*
Y390547D01*
X181462D01*
Y388232D01*
X176057D01*
Y386917D01*
X196089D01*
Y387376D01*
X196955D01*
Y385959D01*
X196089D01*
Y386417D01*
X181462D01*
Y384602D01*
X176057D01*
Y383397D01*
X181462D01*
Y381082D01*
X176057D01*
Y379767D01*
X181462D01*
Y377452D01*
X176057D01*
Y376137D01*
X181462D01*
Y373822D01*
X176057D01*
Y372507D01*
X196089D01*
Y372966D01*
X196955D01*
Y371548D01*
X196089D01*
Y372007D01*
X181462D01*
Y370192D01*
X176057D01*
Y368987D01*
X181462D01*
Y366671D01*
X176057D01*
Y365356D01*
X181462D01*
Y363041D01*
X176057D01*
Y361726D01*
X181462D01*
Y359412D01*
X176057D01*
Y358097D01*
X196089D01*
Y358555D01*
X196955D01*
Y357138D01*
X196089D01*
Y357596D01*
X181462D01*
Y355782D01*
X176057D01*
Y354576D01*
X181462D01*
Y352261D01*
X176057D01*
Y350946D01*
X181462D01*
Y348631D01*
X176057D01*
Y347316D01*
X181462D01*
Y345001D01*
X176057D01*
Y343686D01*
X196089D01*
Y344145D01*
X196955D01*
Y342727D01*
X196089D01*
Y343186D01*
X181462D01*
Y341371D01*
X176057D01*
Y340165D01*
X181462D01*
Y337851D01*
X176057D01*
Y336536D01*
X181462D01*
Y334221D01*
X176057D01*
Y332906D01*
X181462D01*
Y330591D01*
X176057D01*
Y329276D01*
X196089D01*
Y329734D01*
X196955D01*
Y328317D01*
X196089D01*
Y328776D01*
X181462D01*
Y326961D01*
X176057D01*
Y325755D01*
X181462D01*
Y323440D01*
X176057D01*
Y322125D01*
X181462D01*
Y319810D01*
X176057D01*
Y318495D01*
X181462D01*
Y316180D01*
X176057D01*
Y314865D01*
X196089D01*
Y315324D01*
X196955D01*
Y313906D01*
X196089D01*
Y314365D01*
X181462D01*
Y312550D01*
X176057D01*
Y311345D01*
X181462D01*
Y309030D01*
X176057D01*
Y307715D01*
X181462D01*
Y305400D01*
X176057D01*
Y304085D01*
X181462D01*
Y301770D01*
X176057D01*
Y300455D01*
X196089D01*
Y300913D01*
X196955D01*
Y299496D01*
X196089D01*
Y299955D01*
X181462D01*
Y298140D01*
X176057D01*
Y296934D01*
X181462D01*
Y294619D01*
X176057D01*
Y293304D01*
X181462D01*
Y290989D01*
X176057D01*
Y289674D01*
X181462D01*
Y287359D01*
X176057D01*
Y286044D01*
X196089D01*
Y286503D01*
X196955D01*
Y285086D01*
X196089D01*
Y285544D01*
X181462D01*
Y283729D01*
X176057D01*
Y282524D01*
X181462D01*
Y280209D01*
X176057D01*
Y278894D01*
X181462D01*
Y276579D01*
X176057D01*
Y275264D01*
X181462D01*
Y272949D01*
X176057D01*
Y271634D01*
X196089D01*
Y272092D01*
X196955D01*
Y270675D01*
X196089D01*
Y271134D01*
X181462D01*
Y269319D01*
X176057D01*
Y268113D01*
X181462D01*
Y265798D01*
X176057D01*
Y264483D01*
X181462D01*
Y262168D01*
X176057D01*
Y260853D01*
X181462D01*
Y258538D01*
X176057D01*
Y257223D01*
X196089D01*
Y257682D01*
X196955D01*
Y256265D01*
X196089D01*
Y256723D01*
X181462D01*
Y254908D01*
X176057D01*
Y253703D01*
X181462D01*
Y251388D01*
X176057D01*
Y250073D01*
X181462D01*
Y247758D01*
X176057D01*
Y246443D01*
X181462D01*
Y244128D01*
X176057D01*
Y242813D01*
X196089D01*
Y243271D01*
X196955D01*
Y241854D01*
X196089D01*
Y242313D01*
X181462D01*
Y240498D01*
X176057D01*
Y239292D01*
X181462D01*
Y236977D01*
X176057D01*
Y235662D01*
X181462D01*
Y233347D01*
X176057D01*
Y232032D01*
X181462D01*
Y229717D01*
X176057D01*
Y228402D01*
X196089D01*
Y228861D01*
X196955D01*
Y227444D01*
X196089D01*
Y227902D01*
X181462D01*
Y226087D01*
X176057D01*
Y224882D01*
X181462D01*
Y222567D01*
X176057D01*
Y221252D01*
X181462D01*
Y218937D01*
X176057D01*
Y217622D01*
X181462D01*
Y215307D01*
X176057D01*
Y213992D01*
X196089D01*
Y214451D01*
X196955D01*
Y213033D01*
X196089D01*
Y213492D01*
X181462D01*
Y211677D01*
X176057D01*
Y210471D01*
X181462D01*
Y208156D01*
X176057D01*
Y206841D01*
X181462D01*
Y204526D01*
X176057D01*
Y203211D01*
X181462D01*
Y200896D01*
X176057D01*
Y199581D01*
X196089D01*
Y200040D01*
X196955D01*
Y198623D01*
X196089D01*
Y199081D01*
X181462D01*
Y197266D01*
X176057D01*
Y196061D01*
X181462D01*
Y193746D01*
X176057D01*
Y192431D01*
X181462D01*
Y190116D01*
X176057D01*
Y188801D01*
X181462D01*
Y186486D01*
X176057D01*
Y185171D01*
X196089D01*
Y185630D01*
X196955D01*
Y184212D01*
X196089D01*
Y184671D01*
X181462D01*
Y182856D01*
X176057D01*
Y181650D01*
X181462D01*
Y179335D01*
X176057D01*
Y178021D01*
X181462D01*
Y175706D01*
X176057D01*
Y174390D01*
X181462D01*
Y172075D01*
X176057D01*
Y170761D01*
X196089D01*
Y171219D01*
X196955D01*
Y169802D01*
X196089D01*
Y170261D01*
X175557D01*
Y172575D01*
X180962D01*
Y173890D01*
X175557D01*
Y176206D01*
X180962D01*
Y177521D01*
X175557D01*
Y179835D01*
X180962D01*
Y181150D01*
X175557D01*
Y183356D01*
X180962D01*
Y184671D01*
X175557D01*
Y186986D01*
X180962D01*
Y188301D01*
X175557D01*
Y190616D01*
X180962D01*
Y191931D01*
X175557D01*
Y194246D01*
X180962D01*
Y195561D01*
X175557D01*
Y197766D01*
X180962D01*
Y199081D01*
X175557D01*
Y201396D01*
X180962D01*
Y202711D01*
X175557D01*
Y205026D01*
X180962D01*
Y206341D01*
X175557D01*
Y208656D01*
X180962D01*
Y209971D01*
X175557D01*
Y212177D01*
X180962D01*
Y213492D01*
X175557D01*
Y215807D01*
X180962D01*
Y217122D01*
X175557D01*
Y219437D01*
X180962D01*
Y220752D01*
X175557D01*
Y223067D01*
X180962D01*
Y224382D01*
X175557D01*
Y226587D01*
X180962D01*
Y227902D01*
X175557D01*
Y230217D01*
X180962D01*
Y231532D01*
X175557D01*
Y233847D01*
X180962D01*
Y235162D01*
X175557D01*
Y237477D01*
X180962D01*
Y238792D01*
X175557D01*
Y240998D01*
X180962D01*
Y242313D01*
X175557D01*
Y244628D01*
X180962D01*
Y245943D01*
X175557D01*
Y248258D01*
X180962D01*
Y249573D01*
X175557D01*
Y251888D01*
X180962D01*
Y253203D01*
X175557D01*
Y255408D01*
X180962D01*
Y256723D01*
X175557D01*
Y259038D01*
X180962D01*
Y260353D01*
X175557D01*
Y262668D01*
X180962D01*
Y263983D01*
X175557D01*
Y266298D01*
X180962D01*
Y267613D01*
X175557D01*
Y269819D01*
X180962D01*
Y271134D01*
X175557D01*
Y273449D01*
X180962D01*
Y274764D01*
X175557D01*
Y277079D01*
X180962D01*
Y278394D01*
X175557D01*
Y280709D01*
X180962D01*
Y282024D01*
X175557D01*
Y284229D01*
X180962D01*
Y285544D01*
X175557D01*
Y287859D01*
X180962D01*
Y289174D01*
X175557D01*
Y291489D01*
X180962D01*
Y292804D01*
X175557D01*
Y295119D01*
X180962D01*
Y296434D01*
X175557D01*
Y298640D01*
X180962D01*
Y299955D01*
X175557D01*
Y302270D01*
X180962D01*
Y303585D01*
X175557D01*
Y305900D01*
X180962D01*
Y307215D01*
X175557D01*
Y309530D01*
X180962D01*
Y310845D01*
X175557D01*
Y313050D01*
X180962D01*
Y314365D01*
X175557D01*
Y316680D01*
X180962D01*
Y317995D01*
X175557D01*
Y320310D01*
X180962D01*
Y321625D01*
X175557D01*
Y323940D01*
X180962D01*
Y325255D01*
X175557D01*
Y327461D01*
X180962D01*
Y328776D01*
X175557D01*
Y331090D01*
X180962D01*
Y332405D01*
X175557D01*
Y334721D01*
X180962D01*
Y336036D01*
X175557D01*
Y338351D01*
X180962D01*
Y339666D01*
X175557D01*
Y341871D01*
X180962D01*
Y343186D01*
X175557D01*
Y345501D01*
X180962D01*
Y346816D01*
X175557D01*
Y349131D01*
X180962D01*
Y350446D01*
X175557D01*
Y352761D01*
X180962D01*
Y354076D01*
X175557D01*
Y356281D01*
X180962D01*
Y357596D01*
X175557D01*
Y359911D01*
X180962D01*
Y361227D01*
X175557D01*
Y363542D01*
X180962D01*
Y364857D01*
X175557D01*
Y367172D01*
X180962D01*
Y368486D01*
X175557D01*
Y370692D01*
X180962D01*
Y372007D01*
X175557D01*
Y374322D01*
X180962D01*
Y375637D01*
X175557D01*
Y377952D01*
X180962D01*
Y379267D01*
X175557D01*
Y381582D01*
X180962D01*
Y382897D01*
X175557D01*
Y385102D01*
X180962D01*
Y386417D01*
X175557D01*
Y388732D01*
X180962D01*
Y390047D01*
X175557D01*
Y392362D01*
X180962D01*
Y393677D01*
X175557D01*
Y395992D01*
X180962D01*
Y397307D01*
X175557D01*
Y399513D01*
X180962D01*
Y400828D01*
X175557D01*
Y403143D01*
X180962D01*
Y404458D01*
X175557D01*
Y406773D01*
X180962D01*
Y408088D01*
X175557D01*
Y410403D01*
X180962D01*
Y411718D01*
X175557D01*
Y413923D01*
X180962D01*
Y415238D01*
X175557D01*
Y417553D01*
X180962D01*
Y418868D01*
X175557D01*
Y421183D01*
X180962D01*
Y422498D01*
X175557D01*
Y424813D01*
X180962D01*
Y426128D01*
X175557D01*
Y428334D01*
X180962D01*
Y429649D01*
X175557D01*
Y431964D01*
X180962D01*
Y433279D01*
X175557D01*
Y435594D01*
X180962D01*
Y436909D01*
X175557D01*
Y439224D01*
X180962D01*
Y440539D01*
X175557D01*
Y442744D01*
X180962D01*
Y444059D01*
X175557D01*
Y446374D01*
X180962D01*
Y447689D01*
X175557D01*
Y450004D01*
X180962D01*
Y451319D01*
X175557D01*
Y453634D01*
X180962D01*
Y454949D01*
X175557D01*
Y457155D01*
X180962D01*
Y458470D01*
X175557D01*
Y460785D01*
X180962D01*
Y462100D01*
X175557D01*
Y464415D01*
X180962D01*
Y465730D01*
X175557D01*
Y468045D01*
X180962D01*
Y469360D01*
X175557D01*
Y471565D01*
X180962D01*
Y472880D01*
X175557D01*
Y475195D01*
X180962D01*
Y476510D01*
X175557D01*
Y478825D01*
X180962D01*
Y480140D01*
X175557D01*
Y482455D01*
X180962D01*
Y483770D01*
X175557D01*
Y485976D01*
X180962D01*
Y487291D01*
X175557D01*
Y489606D01*
X180962D01*
Y490921D01*
X175557D01*
Y493236D01*
X180962D01*
Y494551D01*
X175557D01*
Y496866D01*
X180962D01*
Y498181D01*
X175557D01*
Y500386D01*
X180962D01*
Y501701D01*
X175557D01*
Y504016D01*
X180962D01*
Y505331D01*
X175557D01*
Y507646D01*
X180962D01*
Y508961D01*
X175557D01*
Y511276D01*
X180962D01*
Y512591D01*
X175557D01*
Y514796D01*
X180962D01*
Y516112D01*
X175557D01*
Y518427D01*
X180962D01*
Y519741D01*
X175557D01*
Y522056D01*
X180962D01*
Y523372D01*
X175557D01*
Y525687D01*
X180962D01*
Y527001D01*
X175557D01*
Y529207D01*
X180962D01*
Y530522D01*
X175557D01*
Y532837D01*
X180962D01*
Y534152D01*
X175557D01*
Y536467D01*
X180962D01*
Y537782D01*
X175557D01*
Y540097D01*
X180962D01*
Y541412D01*
X175557D01*
Y543617D01*
X180962D01*
Y544932D01*
X175557D01*
Y547248D01*
X180962D01*
Y548562D01*
X175557D01*
Y550878D01*
X180962D01*
Y552192D01*
X175557D01*
Y554507D01*
X180962D01*
Y555823D01*
X175557D01*
Y558028D01*
X180962D01*
Y559343D01*
X175557D01*
Y561658D01*
X180962D01*
Y562973D01*
X175557D01*
Y565288D01*
X180962D01*
Y566603D01*
X175557D01*
Y568918D01*
X180962D01*
Y570233D01*
X175557D01*
Y572438D01*
X180962D01*
Y573753D01*
X175557D01*
Y576068D01*
X180962D01*
Y577383D01*
X175557D01*
Y579698D01*
X180962D01*
Y581013D01*
X175557D01*
Y583328D01*
X180962D01*
Y584643D01*
X175557D01*
Y585636D01*
X175098D01*
Y586699D01*
X176515D01*
Y585636D01*
D02*
G37*
G36*
X201638Y553698D02*
X200772D01*
Y554157D01*
X200354D01*
Y553262D01*
X200667Y553240D01*
X201275Y553083D01*
X201845Y552820D01*
X202359Y552459D01*
X202800Y552012D01*
X203154Y551493D01*
X203409Y550918D01*
X203556Y550308D01*
X203574Y549995D01*
X202372Y549995D01*
X202372D01*
X202315Y550336D01*
X202052Y550973D01*
X201609Y551502D01*
X201029Y551875D01*
X200704Y551991D01*
Y550243D01*
X199504D01*
Y551991D01*
X199178Y551875D01*
X198598Y551502D01*
X198155Y550973D01*
X197892Y550336D01*
X197835Y549995D01*
X196632D01*
X196632Y549995D01*
X196651Y550308D01*
X196798Y550918D01*
X197053Y551493D01*
X197407Y552012D01*
X197848Y552459D01*
X198362Y552820D01*
X198932Y553083D01*
X199540Y553240D01*
X199854Y553262D01*
X199854Y554657D01*
X200772D01*
Y555115D01*
X201638D01*
Y553698D01*
D02*
G37*
G36*
X203556Y549281D02*
X203409Y548671D01*
X203154Y548097D01*
X202800Y547577D01*
X202359Y547130D01*
X201845Y546769D01*
X201275Y546506D01*
X200667Y546349D01*
X200354Y546327D01*
Y544932D01*
X199435D01*
Y544474D01*
X198569D01*
Y545891D01*
X199435D01*
Y545432D01*
X199854D01*
Y546327D01*
X199854Y546327D01*
X199540Y546349D01*
X198932Y546506D01*
X198362Y546769D01*
X197848Y547130D01*
X197407Y547577D01*
X197053Y548097D01*
X196798Y548671D01*
X196651Y549281D01*
X196632Y549594D01*
X197835D01*
Y549594D01*
X197892Y549253D01*
X198155Y548616D01*
X198598Y548087D01*
X199178Y547714D01*
X199504Y547598D01*
Y549346D01*
X200704D01*
Y547598D01*
X200704Y547598D01*
X200704D01*
X200704D01*
D01*
X201029Y547714D01*
X201609Y548087D01*
X202052Y548616D01*
X202315Y549253D01*
X202372Y549594D01*
X203574Y549594D01*
X203556Y549281D01*
D02*
G37*
G36*
X201638Y539287D02*
X200772D01*
Y539746D01*
X200354D01*
Y538852D01*
X200667Y538829D01*
X201275Y538673D01*
X201845Y538410D01*
X202359Y538048D01*
X202800Y537601D01*
X203154Y537082D01*
X203409Y536508D01*
X203556Y535898D01*
X203574Y535584D01*
X202372Y535584D01*
X202372D01*
X202315Y535925D01*
X202052Y536562D01*
X201609Y537092D01*
X201029Y537464D01*
X200704Y537580D01*
Y535833D01*
X199504D01*
Y537580D01*
X199178Y537464D01*
X198598Y537092D01*
X198155Y536562D01*
X197892Y535925D01*
X197835Y535584D01*
X196632D01*
X196632Y535584D01*
X196651Y535898D01*
X196798Y536508D01*
X197053Y537082D01*
X197407Y537601D01*
X197848Y538048D01*
X198362Y538410D01*
X198932Y538673D01*
X199540Y538829D01*
X199854Y538852D01*
X199854Y540246D01*
X200772D01*
Y540705D01*
X201638D01*
Y539287D01*
D02*
G37*
G36*
X203556Y534870D02*
X203409Y534260D01*
X203154Y533686D01*
X202800Y533167D01*
X202359Y532720D01*
X201845Y532359D01*
X201275Y532095D01*
X200667Y531939D01*
X200354Y531916D01*
Y530522D01*
X199435D01*
Y530063D01*
X198569D01*
Y531481D01*
X199435D01*
Y531022D01*
X199854D01*
Y531916D01*
X199854Y531916D01*
X199540Y531939D01*
X198932Y532095D01*
X198362Y532359D01*
X197848Y532720D01*
X197407Y533167D01*
X197053Y533686D01*
X196798Y534260D01*
X196651Y534870D01*
X196632Y535184D01*
X197835D01*
Y535184D01*
X197892Y534843D01*
X198155Y534206D01*
X198598Y533676D01*
X199178Y533304D01*
X199504Y533188D01*
Y534935D01*
X200704D01*
Y533188D01*
X200704Y533188D01*
X200704D01*
X200704D01*
D01*
X201029Y533304D01*
X201609Y533676D01*
X202052Y534206D01*
X202315Y534843D01*
X202372Y535184D01*
X203574Y535184D01*
X203556Y534870D01*
D02*
G37*
G36*
X201638Y524877D02*
X200772D01*
Y525336D01*
X200354D01*
Y524441D01*
X200667Y524419D01*
X201275Y524262D01*
X201845Y523999D01*
X202359Y523638D01*
X202800Y523191D01*
X203154Y522672D01*
X203409Y522097D01*
X203556Y521487D01*
X203574Y521174D01*
X202372Y521174D01*
X202372D01*
X202315Y521515D01*
X202052Y522152D01*
X201609Y522681D01*
X201029Y523054D01*
X200704Y523170D01*
Y521422D01*
X199504D01*
Y523170D01*
X199178Y523054D01*
X198598Y522681D01*
X198155Y522152D01*
X197892Y521515D01*
X197835Y521174D01*
X196632D01*
X196632Y521174D01*
X196651Y521487D01*
X196798Y522097D01*
X197053Y522672D01*
X197407Y523191D01*
X197848Y523638D01*
X198362Y523999D01*
X198932Y524262D01*
X199540Y524419D01*
X199854Y524441D01*
X199854Y525836D01*
X200772D01*
Y526294D01*
X201638D01*
Y524877D01*
D02*
G37*
G36*
X203556Y520460D02*
X203409Y519850D01*
X203154Y519276D01*
X202800Y518756D01*
X202359Y518309D01*
X201845Y517948D01*
X201275Y517685D01*
X200667Y517528D01*
X200354Y517506D01*
Y516112D01*
X199435D01*
Y515653D01*
X198569D01*
Y517070D01*
X199435D01*
Y516611D01*
X199854D01*
Y517506D01*
X199854Y517506D01*
X199540Y517528D01*
X198932Y517685D01*
X198362Y517948D01*
X197848Y518309D01*
X197407Y518756D01*
X197053Y519276D01*
X196798Y519850D01*
X196651Y520460D01*
X196632Y520774D01*
X197835D01*
Y520774D01*
X197892Y520432D01*
X198155Y519795D01*
X198598Y519266D01*
X199178Y518893D01*
X199504Y518777D01*
Y520525D01*
X200704D01*
Y518777D01*
X200704Y518777D01*
X200704D01*
X200704D01*
D01*
X201029Y518893D01*
X201609Y519266D01*
X202052Y519795D01*
X202315Y520432D01*
X202372Y520774D01*
X203574Y520774D01*
X203556Y520460D01*
D02*
G37*
G36*
X201638Y510466D02*
X200772D01*
Y510925D01*
X200354D01*
Y510031D01*
X200667Y510008D01*
X201275Y509852D01*
X201845Y509589D01*
X202359Y509228D01*
X202800Y508780D01*
X203154Y508261D01*
X203409Y507687D01*
X203556Y507077D01*
X203574Y506763D01*
X202372Y506763D01*
X202372D01*
X202315Y507104D01*
X202052Y507742D01*
X201609Y508271D01*
X201029Y508643D01*
X200704Y508759D01*
Y507012D01*
X199504D01*
Y508759D01*
X199178Y508643D01*
X198598Y508271D01*
X198155Y507742D01*
X197892Y507104D01*
X197835Y506763D01*
X196632D01*
X196632Y506763D01*
X196651Y507077D01*
X196798Y507687D01*
X197053Y508261D01*
X197407Y508780D01*
X197848Y509228D01*
X198362Y509589D01*
X198932Y509852D01*
X199540Y510008D01*
X199854Y510031D01*
X199854Y511425D01*
X200772D01*
Y511884D01*
X201638D01*
Y510466D01*
D02*
G37*
G36*
X203556Y506050D02*
X203409Y505439D01*
X203154Y504865D01*
X202800Y504346D01*
X202359Y503899D01*
X201845Y503538D01*
X201275Y503274D01*
X200667Y503118D01*
X200354Y503095D01*
Y501701D01*
X199435D01*
Y501242D01*
X198569D01*
Y502660D01*
X199435D01*
Y502201D01*
X199854D01*
Y503095D01*
X199854Y503095D01*
X199540Y503118D01*
X198932Y503274D01*
X198362Y503538D01*
X197848Y503899D01*
X197407Y504346D01*
X197053Y504865D01*
X196798Y505439D01*
X196651Y506050D01*
X196632Y506363D01*
X197835D01*
Y506363D01*
X197892Y506022D01*
X198155Y505385D01*
X198598Y504855D01*
X199178Y504483D01*
X199504Y504367D01*
Y506114D01*
X200704D01*
Y504367D01*
X200704Y504367D01*
X200704D01*
X200704D01*
D01*
X201029Y504483D01*
X201609Y504855D01*
X202052Y505385D01*
X202315Y506022D01*
X202372Y506363D01*
X203574Y506363D01*
X203556Y506050D01*
D02*
G37*
G36*
X201638Y496056D02*
X200772D01*
Y496515D01*
X200354D01*
Y495620D01*
X200667Y495598D01*
X201275Y495441D01*
X201845Y495178D01*
X202359Y494817D01*
X202800Y494370D01*
X203154Y493851D01*
X203409Y493277D01*
X203556Y492666D01*
X203574Y492353D01*
X202372Y492353D01*
X202372D01*
X202315Y492694D01*
X202052Y493331D01*
X201609Y493860D01*
X201029Y494233D01*
X200704Y494349D01*
Y492601D01*
X199504D01*
Y494349D01*
X199178Y494233D01*
X198598Y493860D01*
X198155Y493331D01*
X197892Y492694D01*
X197835Y492353D01*
X196632D01*
X196632Y492353D01*
X196651Y492666D01*
X196798Y493277D01*
X197053Y493851D01*
X197407Y494370D01*
X197848Y494817D01*
X198362Y495178D01*
X198932Y495441D01*
X199540Y495598D01*
X199854Y495620D01*
X199854Y497015D01*
X200772D01*
Y497473D01*
X201638D01*
Y496056D01*
D02*
G37*
G36*
X203556Y491639D02*
X203409Y491029D01*
X203154Y490455D01*
X202800Y489936D01*
X202359Y489488D01*
X201845Y489127D01*
X201275Y488864D01*
X200667Y488707D01*
X200354Y488685D01*
Y487291D01*
X199435D01*
Y486832D01*
X198569D01*
Y488249D01*
X199435D01*
Y487791D01*
X199854D01*
Y488685D01*
X199854Y488685D01*
X199540Y488707D01*
X198932Y488864D01*
X198362Y489127D01*
X197848Y489488D01*
X197407Y489936D01*
X197053Y490455D01*
X196798Y491029D01*
X196651Y491639D01*
X196632Y491953D01*
X197835D01*
Y491953D01*
X197892Y491611D01*
X198155Y490974D01*
X198598Y490445D01*
X199178Y490072D01*
X199504Y489956D01*
Y491704D01*
X200704D01*
Y489956D01*
X200704Y489956D01*
X200704D01*
X200704D01*
D01*
X201029Y490072D01*
X201609Y490445D01*
X202052Y490974D01*
X202315Y491611D01*
X202372Y491953D01*
X203574Y491953D01*
X203556Y491639D01*
D02*
G37*
G36*
X201638Y481646D02*
X200772D01*
Y482104D01*
X200354D01*
Y481210D01*
X200667Y481187D01*
X201275Y481031D01*
X201845Y480768D01*
X202359Y480407D01*
X202800Y479959D01*
X203154Y479440D01*
X203409Y478866D01*
X203556Y478256D01*
X203574Y477942D01*
X202372Y477942D01*
X202372D01*
X202315Y478283D01*
X202052Y478921D01*
X201609Y479450D01*
X201029Y479822D01*
X200704Y479939D01*
Y478191D01*
X199504D01*
Y479939D01*
X199178Y479822D01*
X198598Y479450D01*
X198155Y478921D01*
X197892Y478283D01*
X197835Y477942D01*
X196632D01*
X196632Y477942D01*
X196651Y478256D01*
X196798Y478866D01*
X197053Y479440D01*
X197407Y479959D01*
X197848Y480407D01*
X198362Y480768D01*
X198932Y481031D01*
X199540Y481187D01*
X199854Y481210D01*
X199854Y482604D01*
X200772D01*
Y483063D01*
X201638D01*
Y481646D01*
D02*
G37*
G36*
X203556Y477229D02*
X203409Y476618D01*
X203154Y476044D01*
X202800Y475525D01*
X202359Y475078D01*
X201845Y474717D01*
X201275Y474454D01*
X200667Y474297D01*
X200354Y474274D01*
Y472880D01*
X199435D01*
Y472422D01*
X198569D01*
Y473839D01*
X199435D01*
Y473380D01*
X199854D01*
Y474274D01*
X199854Y474274D01*
X199540Y474297D01*
X198932Y474454D01*
X198362Y474717D01*
X197848Y475078D01*
X197407Y475525D01*
X197053Y476044D01*
X196798Y476618D01*
X196651Y477229D01*
X196632Y477542D01*
X197835D01*
Y477542D01*
X197892Y477201D01*
X198155Y476564D01*
X198598Y476035D01*
X199178Y475662D01*
X199504Y475546D01*
Y477293D01*
X200704D01*
Y475546D01*
X200704Y475546D01*
X200704D01*
X200704D01*
D01*
X201029Y475662D01*
X201609Y476035D01*
X202052Y476564D01*
X202315Y477201D01*
X202372Y477542D01*
X203574Y477542D01*
X203556Y477229D01*
D02*
G37*
G36*
X201638Y467235D02*
X200772D01*
Y467694D01*
X200354D01*
Y466800D01*
X200667Y466777D01*
X201275Y466620D01*
X201845Y466357D01*
X202359Y465996D01*
X202800Y465549D01*
X203154Y465030D01*
X203409Y464456D01*
X203556Y463845D01*
X203574Y463532D01*
X202372Y463532D01*
X202372D01*
X202315Y463873D01*
X202052Y464510D01*
X201609Y465039D01*
X201029Y465412D01*
X200704Y465528D01*
Y463781D01*
X199504D01*
Y465528D01*
X199178Y465412D01*
X198598Y465039D01*
X198155Y464510D01*
X197892Y463873D01*
X197835Y463532D01*
X196632D01*
X196632Y463532D01*
X196651Y463845D01*
X196798Y464456D01*
X197053Y465030D01*
X197407Y465549D01*
X197848Y465996D01*
X198362Y466357D01*
X198932Y466620D01*
X199540Y466777D01*
X199854Y466800D01*
X199854Y468194D01*
X200772D01*
Y468652D01*
X201638D01*
Y467235D01*
D02*
G37*
G36*
X203556Y462818D02*
X203409Y462208D01*
X203154Y461634D01*
X202800Y461115D01*
X202359Y460667D01*
X201845Y460306D01*
X201275Y460043D01*
X200667Y459887D01*
X200354Y459864D01*
Y458470D01*
X199435D01*
Y458011D01*
X198569D01*
Y459428D01*
X199435D01*
Y458970D01*
X199854D01*
Y459864D01*
X199854Y459864D01*
X199540Y459887D01*
X198932Y460043D01*
X198362Y460306D01*
X197848Y460667D01*
X197407Y461115D01*
X197053Y461634D01*
X196798Y462208D01*
X196651Y462818D01*
X196632Y463132D01*
X197835D01*
Y463132D01*
X197892Y462791D01*
X198155Y462153D01*
X198598Y461624D01*
X199178Y461252D01*
X199504Y461135D01*
Y462883D01*
X200704D01*
Y461135D01*
X200704Y461135D01*
X200704D01*
X200704D01*
D01*
X201029Y461252D01*
X201609Y461624D01*
X202052Y462153D01*
X202315Y462791D01*
X202372Y463132D01*
X203574Y463132D01*
X203556Y462818D01*
D02*
G37*
G36*
X201638Y452825D02*
X200772D01*
Y453283D01*
X200354D01*
Y452389D01*
X200667Y452366D01*
X201275Y452210D01*
X201845Y451947D01*
X202359Y451586D01*
X202800Y451138D01*
X203154Y450619D01*
X203409Y450045D01*
X203556Y449435D01*
X203574Y449121D01*
X202372Y449121D01*
X202372D01*
X202315Y449462D01*
X202052Y450100D01*
X201609Y450629D01*
X201029Y451002D01*
X200704Y451118D01*
Y449370D01*
X199504D01*
Y451118D01*
X199178Y451001D01*
X198598Y450629D01*
X198155Y450100D01*
X197892Y449462D01*
X197835Y449121D01*
X196632D01*
X196632Y449121D01*
X196651Y449435D01*
X196798Y450045D01*
X197053Y450619D01*
X197407Y451138D01*
X197848Y451586D01*
X198362Y451947D01*
X198932Y452210D01*
X199540Y452366D01*
X199854Y452389D01*
X199854Y453783D01*
X200772D01*
Y454242D01*
X201638D01*
Y452825D01*
D02*
G37*
G36*
X203556Y448408D02*
X203409Y447797D01*
X203154Y447223D01*
X202800Y446704D01*
X202359Y446257D01*
X201845Y445896D01*
X201275Y445633D01*
X200667Y445476D01*
X200354Y445453D01*
Y444059D01*
X199435D01*
Y443601D01*
X198569D01*
Y445018D01*
X199435D01*
Y444559D01*
X199854D01*
Y445453D01*
X199854Y445453D01*
X199540Y445476D01*
X198932Y445633D01*
X198362Y445896D01*
X197848Y446257D01*
X197407Y446704D01*
X197053Y447223D01*
X196798Y447797D01*
X196651Y448408D01*
X196632Y448721D01*
X197835D01*
Y448721D01*
X197892Y448380D01*
X198155Y447743D01*
X198598Y447214D01*
X199178Y446841D01*
X199504Y446725D01*
Y448472D01*
X200704D01*
Y446725D01*
X200704Y446725D01*
X200704D01*
X200704D01*
D01*
X201029Y446841D01*
X201609Y447214D01*
X202052Y447743D01*
X202315Y448380D01*
X202372Y448721D01*
X203574Y448721D01*
X203556Y448408D01*
D02*
G37*
G36*
X201638Y438414D02*
X200772D01*
Y438873D01*
X200354D01*
Y437979D01*
X200667Y437956D01*
X201275Y437799D01*
X201845Y437536D01*
X202359Y437175D01*
X202800Y436728D01*
X203154Y436209D01*
X203409Y435635D01*
X203556Y435024D01*
X203574Y434711D01*
X202372Y434711D01*
X202372D01*
X202315Y435052D01*
X202052Y435689D01*
X201609Y436219D01*
X201029Y436591D01*
X200704Y436707D01*
Y434960D01*
X199504D01*
Y436707D01*
X199178Y436591D01*
X198598Y436218D01*
X198155Y435689D01*
X197892Y435052D01*
X197835Y434711D01*
X196632D01*
X196632Y434711D01*
X196651Y435024D01*
X196798Y435635D01*
X197053Y436209D01*
X197407Y436728D01*
X197848Y437175D01*
X198362Y437536D01*
X198932Y437799D01*
X199540Y437956D01*
X199854Y437979D01*
X199854Y439373D01*
X200772D01*
Y439831D01*
X201638D01*
Y438414D01*
D02*
G37*
G36*
X203556Y433997D02*
X203409Y433387D01*
X203154Y432813D01*
X202800Y432294D01*
X202359Y431846D01*
X201845Y431485D01*
X201275Y431222D01*
X200667Y431066D01*
X200354Y431043D01*
Y429649D01*
X199435D01*
Y429190D01*
X198569D01*
Y430607D01*
X199435D01*
Y430149D01*
X199854D01*
Y431043D01*
X199854Y431043D01*
X199540Y431066D01*
X198932Y431222D01*
X198362Y431485D01*
X197848Y431846D01*
X197407Y432294D01*
X197053Y432813D01*
X196798Y433387D01*
X196651Y433997D01*
X196632Y434311D01*
X197835D01*
Y434311D01*
X197892Y433970D01*
X198155Y433332D01*
X198598Y432803D01*
X199178Y432431D01*
X199504Y432314D01*
Y434062D01*
X200704D01*
Y432314D01*
X200704Y432314D01*
X200704D01*
X200704D01*
D01*
X201029Y432431D01*
X201609Y432803D01*
X202052Y433332D01*
X202315Y433970D01*
X202372Y434311D01*
X203574Y434311D01*
X203556Y433997D01*
D02*
G37*
G36*
X201638Y424004D02*
X200772D01*
Y424462D01*
X200354D01*
Y423568D01*
X200667Y423546D01*
X201275Y423389D01*
X201845Y423126D01*
X202359Y422765D01*
X202800Y422317D01*
X203154Y421798D01*
X203409Y421224D01*
X203556Y420614D01*
X203574Y420300D01*
X202372Y420300D01*
X202372D01*
X202315Y420642D01*
X202052Y421279D01*
X201609Y421808D01*
X201029Y422181D01*
X200704Y422297D01*
Y420549D01*
X199504D01*
Y422297D01*
X199178Y422181D01*
X198598Y421808D01*
X198155Y421279D01*
X197892Y420642D01*
X197835Y420300D01*
X196632D01*
X196632Y420300D01*
X196651Y420614D01*
X196798Y421224D01*
X197053Y421798D01*
X197407Y422317D01*
X197848Y422765D01*
X198362Y423126D01*
X198932Y423389D01*
X199540Y423546D01*
X199854Y423568D01*
X199854Y424962D01*
X200772D01*
Y425421D01*
X201638D01*
Y424004D01*
D02*
G37*
G36*
X203556Y419587D02*
X203409Y418976D01*
X203154Y418402D01*
X202800Y417883D01*
X202359Y417436D01*
X201845Y417075D01*
X201275Y416812D01*
X200667Y416655D01*
X200354Y416633D01*
Y415238D01*
X199435D01*
Y414780D01*
X198569D01*
Y416197D01*
X199435D01*
Y415738D01*
X199854D01*
Y416633D01*
X199854Y416633D01*
X199540Y416655D01*
X198932Y416812D01*
X198362Y417075D01*
X197848Y417436D01*
X197407Y417883D01*
X197053Y418402D01*
X196798Y418976D01*
X196651Y419587D01*
X196632Y419900D01*
X197835D01*
Y419900D01*
X197892Y419559D01*
X198155Y418922D01*
X198598Y418393D01*
X199178Y418020D01*
X199504Y417904D01*
Y419652D01*
X200704D01*
Y417904D01*
X200704Y417904D01*
X200704D01*
X200704D01*
D01*
X201029Y418020D01*
X201609Y418393D01*
X202052Y418922D01*
X202315Y419559D01*
X202372Y419900D01*
X203574Y419900D01*
X203556Y419587D01*
D02*
G37*
G36*
X201638Y409593D02*
X200772D01*
Y410052D01*
X200354D01*
Y409158D01*
X200667Y409135D01*
X201275Y408979D01*
X201845Y408715D01*
X202359Y408354D01*
X202800Y407907D01*
X203154Y407388D01*
X203409Y406814D01*
X203556Y406203D01*
X203574Y405890D01*
X202372Y405890D01*
X202372D01*
X202315Y406231D01*
X202052Y406868D01*
X201609Y407398D01*
X201029Y407770D01*
X200704Y407886D01*
Y406139D01*
X199504D01*
Y407886D01*
X199178Y407770D01*
X198598Y407398D01*
X198155Y406868D01*
X197892Y406231D01*
X197835Y405890D01*
X196632D01*
X196632Y405890D01*
X196651Y406203D01*
X196798Y406814D01*
X197053Y407388D01*
X197407Y407907D01*
X197848Y408354D01*
X198362Y408715D01*
X198932Y408979D01*
X199540Y409135D01*
X199854Y409158D01*
X199854Y410552D01*
X200772D01*
Y411011D01*
X201638D01*
Y409593D01*
D02*
G37*
G36*
X203556Y405176D02*
X203409Y404566D01*
X203154Y403992D01*
X202800Y403473D01*
X202359Y403025D01*
X201845Y402664D01*
X201275Y402401D01*
X200667Y402245D01*
X200354Y402222D01*
Y400828D01*
X199435D01*
Y400369D01*
X198569D01*
Y401787D01*
X199435D01*
Y401328D01*
X199854D01*
Y402222D01*
X199854Y402222D01*
X199540Y402245D01*
X198932Y402401D01*
X198362Y402664D01*
X197848Y403025D01*
X197407Y403473D01*
X197053Y403992D01*
X196798Y404566D01*
X196651Y405176D01*
X196632Y405490D01*
X197835D01*
Y405490D01*
X197892Y405149D01*
X198155Y404511D01*
X198598Y403982D01*
X199178Y403610D01*
X199504Y403493D01*
Y405241D01*
X200704D01*
Y403493D01*
X200704Y403493D01*
X200704D01*
X200704D01*
D01*
X201029Y403610D01*
X201609Y403982D01*
X202052Y404511D01*
X202315Y405149D01*
X202372Y405490D01*
X203574Y405490D01*
X203556Y405176D01*
D02*
G37*
G36*
X201638Y395183D02*
X200772D01*
Y395641D01*
X200354D01*
Y394747D01*
X200667Y394725D01*
X201275Y394568D01*
X201845Y394305D01*
X202359Y393944D01*
X202800Y393496D01*
X203154Y392977D01*
X203409Y392403D01*
X203556Y391793D01*
X203574Y391479D01*
X202372Y391479D01*
X202372D01*
X202315Y391821D01*
X202052Y392458D01*
X201609Y392987D01*
X201029Y393360D01*
X200704Y393476D01*
Y391728D01*
X199504D01*
Y393476D01*
X199178Y393360D01*
X198598Y392987D01*
X198155Y392458D01*
X197892Y391821D01*
X197835Y391479D01*
X196632D01*
X196632Y391479D01*
X196651Y391793D01*
X196798Y392403D01*
X197053Y392977D01*
X197407Y393496D01*
X197848Y393944D01*
X198362Y394305D01*
X198932Y394568D01*
X199540Y394725D01*
X199854Y394747D01*
X199854Y396142D01*
X200772D01*
Y396600D01*
X201638D01*
Y395183D01*
D02*
G37*
G36*
X203556Y390766D02*
X203409Y390156D01*
X203154Y389581D01*
X202800Y389062D01*
X202359Y388615D01*
X201845Y388254D01*
X201275Y387991D01*
X200667Y387834D01*
X200354Y387812D01*
Y386417D01*
X199435D01*
Y385959D01*
X198569D01*
Y387376D01*
X199435D01*
Y386917D01*
X199854D01*
Y387812D01*
X199854Y387812D01*
X199540Y387834D01*
X198932Y387991D01*
X198362Y388254D01*
X197848Y388615D01*
X197407Y389062D01*
X197053Y389581D01*
X196798Y390156D01*
X196651Y390766D01*
X196632Y391079D01*
X197835D01*
Y391079D01*
X197892Y390738D01*
X198155Y390101D01*
X198598Y389572D01*
X199178Y389199D01*
X199504Y389083D01*
Y390831D01*
X200704D01*
Y389083D01*
X200704Y389083D01*
X200704D01*
X200704D01*
D01*
X201029Y389199D01*
X201609Y389572D01*
X202052Y390101D01*
X202315Y390738D01*
X202372Y391079D01*
X203574Y391079D01*
X203556Y390766D01*
D02*
G37*
G36*
X201638Y380772D02*
X200772D01*
Y381231D01*
X200354D01*
Y380337D01*
X200667Y380314D01*
X201275Y380157D01*
X201845Y379894D01*
X202359Y379533D01*
X202800Y379086D01*
X203154Y378567D01*
X203409Y377993D01*
X203556Y377382D01*
X203574Y377069D01*
X202372Y377069D01*
X202372D01*
X202315Y377410D01*
X202052Y378047D01*
X201609Y378577D01*
X201029Y378949D01*
X200704Y379065D01*
Y377318D01*
X199504D01*
Y379065D01*
X199178Y378949D01*
X198598Y378577D01*
X198155Y378047D01*
X197892Y377410D01*
X197835Y377069D01*
X196632D01*
X196632Y377069D01*
X196651Y377382D01*
X196798Y377993D01*
X197053Y378567D01*
X197407Y379086D01*
X197848Y379533D01*
X198362Y379894D01*
X198932Y380157D01*
X199540Y380314D01*
X199854Y380337D01*
X199854Y381731D01*
X200772D01*
Y382190D01*
X201638D01*
Y380772D01*
D02*
G37*
G36*
X203556Y376356D02*
X203409Y375745D01*
X203154Y375171D01*
X202800Y374652D01*
X202359Y374205D01*
X201845Y373844D01*
X201275Y373580D01*
X200667Y373424D01*
X200354Y373401D01*
Y372007D01*
X199435D01*
Y371548D01*
X198569D01*
Y372966D01*
X199435D01*
Y372507D01*
X199854D01*
Y373401D01*
X199854Y373401D01*
X199540Y373424D01*
X198932Y373580D01*
X198362Y373844D01*
X197848Y374205D01*
X197407Y374652D01*
X197053Y375171D01*
X196798Y375745D01*
X196651Y376356D01*
X196632Y376669D01*
X197835D01*
Y376669D01*
X197892Y376328D01*
X198155Y375691D01*
X198598Y375161D01*
X199178Y374789D01*
X199504Y374673D01*
Y376420D01*
X200704D01*
Y374673D01*
X200704Y374673D01*
X200704D01*
X200704D01*
D01*
X201029Y374789D01*
X201609Y375161D01*
X202052Y375691D01*
X202315Y376328D01*
X202372Y376669D01*
X203574Y376669D01*
X203556Y376356D01*
D02*
G37*
G36*
X201638Y366362D02*
X200772D01*
Y366821D01*
X200354D01*
Y365926D01*
X200667Y365904D01*
X201275Y365747D01*
X201845Y365484D01*
X202359Y365123D01*
X202800Y364676D01*
X203154Y364157D01*
X203409Y363582D01*
X203556Y362972D01*
X203574Y362659D01*
X202372Y362659D01*
X202372D01*
X202315Y363000D01*
X202052Y363637D01*
X201609Y364166D01*
X201029Y364539D01*
X200704Y364655D01*
Y362907D01*
X199504D01*
Y364655D01*
X199178Y364539D01*
X198598Y364166D01*
X198155Y363637D01*
X197892Y363000D01*
X197835Y362659D01*
X196632D01*
X196632Y362659D01*
X196651Y362972D01*
X196798Y363582D01*
X197053Y364157D01*
X197407Y364676D01*
X197848Y365123D01*
X198362Y365484D01*
X198932Y365747D01*
X199540Y365904D01*
X199854Y365926D01*
X199854Y367321D01*
X200772D01*
Y367779D01*
X201638D01*
Y366362D01*
D02*
G37*
G36*
X203556Y361945D02*
X203409Y361335D01*
X203154Y360760D01*
X202800Y360241D01*
X202359Y359794D01*
X201845Y359433D01*
X201275Y359170D01*
X200667Y359013D01*
X200354Y358991D01*
Y357596D01*
X199435D01*
Y357138D01*
X198569D01*
Y358555D01*
X199435D01*
Y358097D01*
X199854D01*
Y358991D01*
X199854Y358991D01*
X199540Y359013D01*
X198932Y359170D01*
X198362Y359433D01*
X197848Y359794D01*
X197407Y360241D01*
X197053Y360760D01*
X196798Y361335D01*
X196651Y361945D01*
X196632Y362259D01*
X197835D01*
Y362259D01*
X197892Y361917D01*
X198155Y361280D01*
X198598Y360751D01*
X199178Y360378D01*
X199504Y360262D01*
Y362010D01*
X200704D01*
Y360262D01*
X200704Y360262D01*
X200704D01*
X200704D01*
D01*
X201029Y360378D01*
X201609Y360751D01*
X202052Y361280D01*
X202315Y361917D01*
X202372Y362259D01*
X203574Y362259D01*
X203556Y361945D01*
D02*
G37*
G36*
X201638Y351952D02*
X200772D01*
Y352410D01*
X200354D01*
Y351516D01*
X200667Y351493D01*
X201275Y351337D01*
X201845Y351074D01*
X202359Y350712D01*
X202800Y350265D01*
X203154Y349746D01*
X203409Y349172D01*
X203556Y348562D01*
X203574Y348248D01*
X202372Y348248D01*
X202372D01*
X202315Y348589D01*
X202052Y349226D01*
X201609Y349756D01*
X201029Y350128D01*
X200704Y350244D01*
Y348497D01*
X199504D01*
Y350244D01*
X199178Y350128D01*
X198598Y349756D01*
X198155Y349226D01*
X197892Y348589D01*
X197835Y348248D01*
X196632D01*
X196632Y348248D01*
X196651Y348562D01*
X196798Y349172D01*
X197053Y349746D01*
X197407Y350265D01*
X197848Y350712D01*
X198362Y351074D01*
X198932Y351337D01*
X199540Y351493D01*
X199854Y351516D01*
X199854Y352910D01*
X200772D01*
Y353369D01*
X201638D01*
Y351952D01*
D02*
G37*
G36*
X203556Y347534D02*
X203409Y346924D01*
X203154Y346350D01*
X202800Y345831D01*
X202359Y345384D01*
X201845Y345023D01*
X201275Y344759D01*
X200667Y344603D01*
X200354Y344580D01*
Y343186D01*
X199435D01*
Y342727D01*
X198569D01*
Y344145D01*
X199435D01*
Y343686D01*
X199854D01*
Y344580D01*
X199854Y344580D01*
X199540Y344603D01*
X198932Y344759D01*
X198362Y345023D01*
X197848Y345384D01*
X197407Y345831D01*
X197053Y346350D01*
X196798Y346924D01*
X196651Y347534D01*
X196632Y347848D01*
X197835D01*
Y347848D01*
X197892Y347507D01*
X198155Y346870D01*
X198598Y346340D01*
X199178Y345968D01*
X199504Y345852D01*
Y347599D01*
X200704D01*
Y345852D01*
X200704Y345852D01*
X200704D01*
X200704D01*
D01*
X201029Y345968D01*
X201609Y346340D01*
X202052Y346870D01*
X202315Y347507D01*
X202372Y347848D01*
X203574Y347848D01*
X203556Y347534D01*
D02*
G37*
G36*
X201638Y337541D02*
X200772D01*
Y338000D01*
X200354D01*
Y337105D01*
X200667Y337083D01*
X201275Y336926D01*
X201845Y336663D01*
X202359Y336302D01*
X202800Y335855D01*
X203154Y335336D01*
X203409Y334762D01*
X203556Y334151D01*
X203574Y333838D01*
X202372Y333838D01*
X202372D01*
X202315Y334179D01*
X202052Y334816D01*
X201609Y335345D01*
X201029Y335718D01*
X200704Y335834D01*
Y334086D01*
X199504D01*
Y335834D01*
X199178Y335718D01*
X198598Y335345D01*
X198155Y334816D01*
X197892Y334179D01*
X197835Y333838D01*
X196632D01*
X196632Y333838D01*
X196651Y334151D01*
X196798Y334762D01*
X197053Y335336D01*
X197407Y335855D01*
X197848Y336302D01*
X198362Y336663D01*
X198932Y336926D01*
X199540Y337083D01*
X199854Y337105D01*
X199854Y338500D01*
X200772D01*
Y338958D01*
X201638D01*
Y337541D01*
D02*
G37*
G36*
X203556Y333124D02*
X203409Y332514D01*
X203154Y331940D01*
X202800Y331420D01*
X202359Y330973D01*
X201845Y330612D01*
X201275Y330349D01*
X200667Y330192D01*
X200354Y330170D01*
Y328776D01*
X199435D01*
Y328317D01*
X198569D01*
Y329734D01*
X199435D01*
Y329275D01*
X199854D01*
Y330170D01*
X199854Y330170D01*
X199540Y330192D01*
X198932Y330349D01*
X198362Y330612D01*
X197848Y330973D01*
X197407Y331420D01*
X197053Y331940D01*
X196798Y332514D01*
X196651Y333124D01*
X196632Y333438D01*
X197835D01*
Y333438D01*
X197892Y333096D01*
X198155Y332459D01*
X198598Y331930D01*
X199178Y331557D01*
X199504Y331441D01*
Y333189D01*
X200704D01*
Y331441D01*
X200704Y331441D01*
X200704D01*
X200704D01*
D01*
X201029Y331557D01*
X201609Y331930D01*
X202052Y332459D01*
X202315Y333096D01*
X202372Y333438D01*
X203574Y333438D01*
X203556Y333124D01*
D02*
G37*
G36*
X201638Y323130D02*
X200772D01*
Y323589D01*
X200354D01*
Y322695D01*
X200667Y322672D01*
X201275Y322516D01*
X201845Y322253D01*
X202359Y321891D01*
X202800Y321444D01*
X203154Y320925D01*
X203409Y320351D01*
X203556Y319741D01*
X203574Y319427D01*
X202372Y319427D01*
X202372D01*
X202315Y319768D01*
X202052Y320406D01*
X201609Y320935D01*
X201029Y321307D01*
X200704Y321424D01*
Y319676D01*
X199504D01*
Y321424D01*
X199178Y321307D01*
X198598Y320935D01*
X198155Y320406D01*
X197892Y319768D01*
X197835Y319427D01*
X196632D01*
X196632Y319427D01*
X196651Y319741D01*
X196798Y320351D01*
X197053Y320925D01*
X197407Y321444D01*
X197848Y321891D01*
X198362Y322253D01*
X198932Y322516D01*
X199540Y322672D01*
X199854Y322695D01*
X199854Y324089D01*
X200772D01*
Y324548D01*
X201638D01*
Y323130D01*
D02*
G37*
G36*
X203556Y318714D02*
X203409Y318103D01*
X203154Y317529D01*
X202800Y317010D01*
X202359Y316563D01*
X201845Y316202D01*
X201275Y315939D01*
X200667Y315782D01*
X200354Y315759D01*
Y314365D01*
X199435D01*
Y313906D01*
X198569D01*
Y315324D01*
X199435D01*
Y314865D01*
X199854D01*
Y315759D01*
X199854Y315759D01*
X199540Y315782D01*
X198932Y315939D01*
X198362Y316202D01*
X197848Y316563D01*
X197407Y317010D01*
X197053Y317529D01*
X196798Y318103D01*
X196651Y318714D01*
X196632Y319027D01*
X197835D01*
Y319027D01*
X197892Y318686D01*
X198155Y318049D01*
X198598Y317519D01*
X199178Y317147D01*
X199504Y317031D01*
Y318778D01*
X200704D01*
Y317031D01*
X200704Y317031D01*
X200704D01*
X200704D01*
D01*
X201029Y317147D01*
X201609Y317519D01*
X202052Y318049D01*
X202315Y318686D01*
X202372Y319027D01*
X203574Y319027D01*
X203556Y318714D01*
D02*
G37*
G36*
X201638Y308720D02*
X200772D01*
Y309179D01*
X200354D01*
Y308284D01*
X200667Y308262D01*
X201275Y308105D01*
X201845Y307842D01*
X202359Y307481D01*
X202800Y307034D01*
X203154Y306515D01*
X203409Y305941D01*
X203556Y305330D01*
X203574Y305017D01*
X202372Y305017D01*
X202372D01*
X202315Y305358D01*
X202052Y305995D01*
X201609Y306524D01*
X201029Y306897D01*
X200704Y307013D01*
Y305265D01*
X199504D01*
Y307013D01*
X199178Y306897D01*
X198598Y306524D01*
X198155Y305995D01*
X197892Y305358D01*
X197835Y305017D01*
X196632D01*
X196632Y305017D01*
X196651Y305330D01*
X196798Y305941D01*
X197053Y306515D01*
X197407Y307034D01*
X197848Y307481D01*
X198362Y307842D01*
X198932Y308105D01*
X199540Y308262D01*
X199854Y308284D01*
X199854Y309679D01*
X200772D01*
Y310137D01*
X201638D01*
Y308720D01*
D02*
G37*
G36*
X203556Y304303D02*
X203409Y303693D01*
X203154Y303119D01*
X202800Y302600D01*
X202359Y302152D01*
X201845Y301791D01*
X201275Y301528D01*
X200667Y301371D01*
X200354Y301349D01*
Y299955D01*
X199435D01*
Y299496D01*
X198569D01*
Y300913D01*
X199435D01*
Y300455D01*
X199854D01*
Y301349D01*
X199854Y301349D01*
X199540Y301371D01*
X198932Y301528D01*
X198362Y301791D01*
X197848Y302152D01*
X197407Y302600D01*
X197053Y303119D01*
X196798Y303693D01*
X196651Y304303D01*
X196632Y304617D01*
X197835D01*
Y304617D01*
X197892Y304275D01*
X198155Y303638D01*
X198598Y303109D01*
X199178Y302736D01*
X199504Y302620D01*
Y304368D01*
X200704D01*
Y302620D01*
X200704Y302620D01*
X200704D01*
X200704D01*
D01*
X201029Y302736D01*
X201609Y303109D01*
X202052Y303638D01*
X202315Y304275D01*
X202372Y304617D01*
X203574Y304617D01*
X203556Y304303D01*
D02*
G37*
G36*
X201638Y294310D02*
X200772D01*
Y294768D01*
X200354D01*
Y293874D01*
X200667Y293851D01*
X201275Y293695D01*
X201845Y293432D01*
X202359Y293071D01*
X202800Y292623D01*
X203154Y292104D01*
X203409Y291530D01*
X203556Y290920D01*
X203574Y290606D01*
X202372Y290606D01*
X202372D01*
X202315Y290947D01*
X202052Y291585D01*
X201609Y292114D01*
X201029Y292486D01*
X200704Y292603D01*
Y290855D01*
X199504D01*
Y292603D01*
X199178Y292486D01*
X198598Y292114D01*
X198155Y291585D01*
X197892Y290947D01*
X197835Y290606D01*
X196632D01*
X196632Y290606D01*
X196651Y290920D01*
X196798Y291530D01*
X197053Y292104D01*
X197407Y292623D01*
X197848Y293071D01*
X198362Y293432D01*
X198932Y293695D01*
X199540Y293851D01*
X199854Y293874D01*
X199854Y295268D01*
X200772D01*
Y295727D01*
X201638D01*
Y294310D01*
D02*
G37*
G36*
X203556Y289893D02*
X203409Y289282D01*
X203154Y288708D01*
X202800Y288189D01*
X202359Y287742D01*
X201845Y287381D01*
X201275Y287118D01*
X200667Y286961D01*
X200354Y286938D01*
Y285544D01*
X199435D01*
Y285086D01*
X198569D01*
Y286503D01*
X199435D01*
Y286044D01*
X199854D01*
Y286938D01*
X199854Y286938D01*
X199540Y286961D01*
X198932Y287118D01*
X198362Y287381D01*
X197848Y287742D01*
X197407Y288189D01*
X197053Y288708D01*
X196798Y289282D01*
X196651Y289893D01*
X196632Y290206D01*
X197835D01*
Y290206D01*
X197892Y289865D01*
X198155Y289228D01*
X198598Y288699D01*
X199178Y288326D01*
X199504Y288210D01*
Y289957D01*
X200704D01*
Y288210D01*
X200704Y288210D01*
X200704D01*
X200704D01*
D01*
X201029Y288326D01*
X201609Y288699D01*
X202052Y289228D01*
X202315Y289865D01*
X202372Y290206D01*
X203574Y290206D01*
X203556Y289893D01*
D02*
G37*
G36*
X201638Y279899D02*
X200772D01*
Y280358D01*
X200354D01*
Y279464D01*
X200667Y279441D01*
X201275Y279284D01*
X201845Y279021D01*
X202359Y278660D01*
X202800Y278213D01*
X203154Y277694D01*
X203409Y277120D01*
X203556Y276509D01*
X203574Y276196D01*
X202372Y276196D01*
X202372D01*
X202315Y276537D01*
X202052Y277174D01*
X201609Y277703D01*
X201029Y278076D01*
X200704Y278192D01*
Y276445D01*
X199504D01*
Y278192D01*
X199178Y278076D01*
X198598Y277703D01*
X198155Y277174D01*
X197892Y276537D01*
X197835Y276196D01*
X196632D01*
X196632Y276196D01*
X196651Y276509D01*
X196798Y277120D01*
X197053Y277694D01*
X197407Y278213D01*
X197848Y278660D01*
X198362Y279021D01*
X198932Y279284D01*
X199540Y279441D01*
X199854Y279464D01*
X199854Y280858D01*
X200772D01*
Y281316D01*
X201638D01*
Y279899D01*
D02*
G37*
G36*
X203556Y275482D02*
X203409Y274872D01*
X203154Y274298D01*
X202800Y273779D01*
X202359Y273331D01*
X201845Y272970D01*
X201275Y272707D01*
X200667Y272551D01*
X200354Y272528D01*
Y271134D01*
X199435D01*
Y270675D01*
X198569D01*
Y272092D01*
X199435D01*
Y271634D01*
X199854D01*
Y272528D01*
X199854Y272528D01*
X199540Y272551D01*
X198932Y272707D01*
X198362Y272970D01*
X197848Y273331D01*
X197407Y273779D01*
X197053Y274298D01*
X196798Y274872D01*
X196651Y275482D01*
X196632Y275796D01*
X197835D01*
Y275796D01*
X197892Y275455D01*
X198155Y274817D01*
X198598Y274288D01*
X199178Y273916D01*
X199504Y273799D01*
Y275547D01*
X200704D01*
Y273799D01*
X200704Y273799D01*
X200704D01*
X200704D01*
D01*
X201029Y273916D01*
X201609Y274288D01*
X202052Y274817D01*
X202315Y275455D01*
X202372Y275796D01*
X203574Y275796D01*
X203556Y275482D01*
D02*
G37*
G36*
X201638Y265489D02*
X200772D01*
Y265947D01*
X200354D01*
Y265053D01*
X200667Y265031D01*
X201275Y264874D01*
X201845Y264611D01*
X202359Y264250D01*
X202800Y263802D01*
X203154Y263283D01*
X203409Y262709D01*
X203556Y262099D01*
X203574Y261785D01*
X202372Y261785D01*
X202372D01*
X202315Y262126D01*
X202052Y262764D01*
X201609Y263293D01*
X201029Y263666D01*
X200704Y263782D01*
Y262034D01*
X199504D01*
Y263782D01*
X199178Y263666D01*
X198598Y263293D01*
X198155Y262764D01*
X197892Y262126D01*
X197835Y261785D01*
X196632D01*
X196632Y261785D01*
X196651Y262099D01*
X196798Y262709D01*
X197053Y263283D01*
X197407Y263802D01*
X197848Y264250D01*
X198362Y264611D01*
X198932Y264874D01*
X199540Y265031D01*
X199854Y265053D01*
X199854Y266447D01*
X200772D01*
Y266906D01*
X201638D01*
Y265489D01*
D02*
G37*
G36*
X203556Y261072D02*
X203409Y260461D01*
X203154Y259887D01*
X202800Y259368D01*
X202359Y258921D01*
X201845Y258560D01*
X201275Y258297D01*
X200667Y258140D01*
X200354Y258118D01*
Y256723D01*
X199435D01*
Y256265D01*
X198569D01*
Y257682D01*
X199435D01*
Y257223D01*
X199854D01*
Y258118D01*
X199854Y258118D01*
X199540Y258140D01*
X198932Y258297D01*
X198362Y258560D01*
X197848Y258921D01*
X197407Y259368D01*
X197053Y259887D01*
X196798Y260461D01*
X196651Y261072D01*
X196632Y261385D01*
X197835D01*
Y261385D01*
X197892Y261044D01*
X198155Y260407D01*
X198598Y259878D01*
X199178Y259505D01*
X199504Y259389D01*
Y261137D01*
X200704D01*
Y259389D01*
X200704Y259389D01*
X200704D01*
X200704D01*
D01*
X201029Y259505D01*
X201609Y259878D01*
X202052Y260407D01*
X202315Y261044D01*
X202372Y261385D01*
X203574Y261385D01*
X203556Y261072D01*
D02*
G37*
G36*
X201638Y251078D02*
X200772D01*
Y251537D01*
X200354D01*
Y250643D01*
X200667Y250620D01*
X201275Y250463D01*
X201845Y250200D01*
X202359Y249839D01*
X202800Y249392D01*
X203154Y248873D01*
X203409Y248299D01*
X203556Y247688D01*
X203574Y247375D01*
X202372Y247375D01*
X202372D01*
X202315Y247716D01*
X202052Y248353D01*
X201609Y248883D01*
X201029Y249255D01*
X200704Y249371D01*
Y247624D01*
X199504D01*
Y249371D01*
X199178Y249255D01*
X198598Y248883D01*
X198155Y248353D01*
X197892Y247716D01*
X197835Y247375D01*
X196632D01*
X196632Y247375D01*
X196651Y247688D01*
X196798Y248299D01*
X197053Y248873D01*
X197407Y249392D01*
X197848Y249839D01*
X198362Y250200D01*
X198932Y250463D01*
X199540Y250620D01*
X199854Y250643D01*
X199854Y252037D01*
X200772D01*
Y252496D01*
X201638D01*
Y251078D01*
D02*
G37*
G36*
X203556Y246661D02*
X203409Y246051D01*
X203154Y245477D01*
X202800Y244958D01*
X202359Y244511D01*
X201845Y244149D01*
X201275Y243886D01*
X200667Y243730D01*
X200354Y243707D01*
Y242313D01*
X199435D01*
Y241854D01*
X198569D01*
Y243271D01*
X199435D01*
Y242813D01*
X199854D01*
Y243707D01*
X199854Y243707D01*
X199540Y243730D01*
X198932Y243886D01*
X198362Y244149D01*
X197848Y244511D01*
X197407Y244958D01*
X197053Y245477D01*
X196798Y246051D01*
X196651Y246661D01*
X196632Y246975D01*
X197835D01*
Y246975D01*
X197892Y246634D01*
X198155Y245996D01*
X198598Y245467D01*
X199178Y245095D01*
X199504Y244978D01*
Y246726D01*
X200704D01*
Y244978D01*
X200704Y244978D01*
X200704D01*
X200704D01*
D01*
X201029Y245095D01*
X201609Y245467D01*
X202052Y245996D01*
X202315Y246634D01*
X202372Y246975D01*
X203574Y246975D01*
X203556Y246661D01*
D02*
G37*
G36*
X201638Y236668D02*
X200772D01*
Y237126D01*
X200354D01*
Y236232D01*
X200667Y236210D01*
X201275Y236053D01*
X201845Y235790D01*
X202359Y235429D01*
X202800Y234981D01*
X203154Y234462D01*
X203409Y233888D01*
X203556Y233278D01*
X203574Y232964D01*
X202372Y232964D01*
X202372D01*
X202315Y233306D01*
X202052Y233943D01*
X201609Y234472D01*
X201029Y234845D01*
X200704Y234961D01*
Y233213D01*
X199504D01*
Y234961D01*
X199178Y234844D01*
X198598Y234472D01*
X198155Y233943D01*
X197892Y233306D01*
X197835Y232964D01*
X196632D01*
X196632Y232964D01*
X196651Y233278D01*
X196798Y233888D01*
X197053Y234462D01*
X197407Y234981D01*
X197848Y235429D01*
X198362Y235790D01*
X198932Y236053D01*
X199540Y236210D01*
X199854Y236232D01*
X199854Y237627D01*
X200772D01*
Y238085D01*
X201638D01*
Y236668D01*
D02*
G37*
G36*
X203556Y232251D02*
X203409Y231640D01*
X203154Y231066D01*
X202800Y230547D01*
X202359Y230100D01*
X201845Y229739D01*
X201275Y229476D01*
X200667Y229319D01*
X200354Y229296D01*
Y227902D01*
X199435D01*
Y227444D01*
X198569D01*
Y228861D01*
X199435D01*
Y228402D01*
X199854D01*
Y229296D01*
X199854Y229296D01*
X199540Y229319D01*
X198932Y229476D01*
X198362Y229739D01*
X197848Y230100D01*
X197407Y230547D01*
X197053Y231066D01*
X196798Y231640D01*
X196651Y232251D01*
X196632Y232564D01*
X197835D01*
Y232564D01*
X197892Y232223D01*
X198155Y231586D01*
X198598Y231057D01*
X199178Y230684D01*
X199504Y230568D01*
Y232316D01*
X200704D01*
Y230568D01*
X200704Y230568D01*
X200704D01*
X200704D01*
D01*
X201029Y230684D01*
X201609Y231057D01*
X202052Y231586D01*
X202315Y232223D01*
X202372Y232564D01*
X203574Y232564D01*
X203556Y232251D01*
D02*
G37*
G36*
X201638Y222257D02*
X200772D01*
Y222716D01*
X200354D01*
Y221822D01*
X200667Y221799D01*
X201275Y221642D01*
X201845Y221379D01*
X202359Y221018D01*
X202800Y220571D01*
X203154Y220052D01*
X203409Y219478D01*
X203556Y218867D01*
X203574Y218554D01*
X202372Y218554D01*
X202372D01*
X202315Y218895D01*
X202052Y219532D01*
X201609Y220062D01*
X201029Y220434D01*
X200704Y220550D01*
Y218803D01*
X199504D01*
Y220550D01*
X199178Y220434D01*
X198598Y220061D01*
X198155Y219532D01*
X197892Y218895D01*
X197835Y218554D01*
X196632D01*
X196632Y218554D01*
X196651Y218867D01*
X196798Y219478D01*
X197053Y220052D01*
X197407Y220571D01*
X197848Y221018D01*
X198362Y221379D01*
X198932Y221642D01*
X199540Y221799D01*
X199854Y221822D01*
X199854Y223216D01*
X200772D01*
Y223675D01*
X201638D01*
Y222257D01*
D02*
G37*
G36*
X203556Y217840D02*
X203409Y217230D01*
X203154Y216656D01*
X202800Y216137D01*
X202359Y215690D01*
X201845Y215329D01*
X201275Y215065D01*
X200667Y214909D01*
X200354Y214886D01*
Y213492D01*
X199435D01*
Y213033D01*
X198569D01*
Y214451D01*
X199435D01*
Y213992D01*
X199854D01*
Y214886D01*
X199854Y214886D01*
X199540Y214909D01*
X198932Y215065D01*
X198362Y215329D01*
X197848Y215690D01*
X197407Y216137D01*
X197053Y216656D01*
X196798Y217230D01*
X196651Y217840D01*
X196632Y218154D01*
X197835D01*
Y218154D01*
X197892Y217813D01*
X198155Y217176D01*
X198598Y216646D01*
X199178Y216274D01*
X199504Y216158D01*
Y217905D01*
X200704D01*
Y216158D01*
X200704Y216158D01*
X200704D01*
X200704D01*
D01*
X201029Y216274D01*
X201609Y216646D01*
X202052Y217176D01*
X202315Y217813D01*
X202372Y218154D01*
X203574Y218154D01*
X203556Y217840D01*
D02*
G37*
G36*
X201638Y207847D02*
X200772D01*
Y208306D01*
X200354D01*
Y207411D01*
X200667Y207389D01*
X201275Y207232D01*
X201845Y206969D01*
X202359Y206608D01*
X202800Y206160D01*
X203154Y205641D01*
X203409Y205067D01*
X203556Y204457D01*
X203574Y204144D01*
X202372Y204144D01*
X202372D01*
X202315Y204485D01*
X202052Y205122D01*
X201609Y205651D01*
X201029Y206024D01*
X200704Y206140D01*
Y204392D01*
X199504D01*
Y206140D01*
X199178Y206024D01*
X198598Y205651D01*
X198155Y205122D01*
X197892Y204485D01*
X197835Y204144D01*
X196632D01*
X196632Y204144D01*
X196651Y204457D01*
X196798Y205067D01*
X197053Y205641D01*
X197407Y206160D01*
X197848Y206608D01*
X198362Y206969D01*
X198932Y207232D01*
X199540Y207389D01*
X199854Y207411D01*
X199854Y208805D01*
X200772D01*
Y209264D01*
X201638D01*
Y207847D01*
D02*
G37*
G36*
X203556Y203430D02*
X203409Y202819D01*
X203154Y202245D01*
X202800Y201726D01*
X202359Y201279D01*
X201845Y200918D01*
X201275Y200655D01*
X200667Y200498D01*
X200354Y200476D01*
Y199081D01*
X199435D01*
Y198623D01*
X198569D01*
Y200040D01*
X199435D01*
Y199581D01*
X199854D01*
Y200476D01*
X199854Y200476D01*
X199540Y200498D01*
X198932Y200655D01*
X198362Y200918D01*
X197848Y201279D01*
X197407Y201726D01*
X197053Y202245D01*
X196798Y202819D01*
X196651Y203430D01*
X196632Y203744D01*
X197835D01*
Y203744D01*
X197892Y203402D01*
X198155Y202765D01*
X198598Y202236D01*
X199178Y201863D01*
X199504Y201747D01*
Y203495D01*
X200704D01*
Y201747D01*
X200704Y201747D01*
X200704D01*
X200704D01*
D01*
X201029Y201863D01*
X201609Y202236D01*
X202052Y202765D01*
X202315Y203402D01*
X202372Y203744D01*
X203574Y203744D01*
X203556Y203430D01*
D02*
G37*
G36*
X201638Y193436D02*
X200772D01*
Y193895D01*
X200354D01*
Y193001D01*
X200667Y192978D01*
X201275Y192822D01*
X201845Y192558D01*
X202359Y192197D01*
X202800Y191750D01*
X203154Y191231D01*
X203409Y190657D01*
X203556Y190047D01*
X203574Y189733D01*
X202372Y189733D01*
X202372D01*
X202315Y190074D01*
X202052Y190711D01*
X201609Y191241D01*
X201029Y191613D01*
X200704Y191729D01*
Y189982D01*
X199504D01*
Y191729D01*
X199178Y191613D01*
X198598Y191241D01*
X198155Y190711D01*
X197892Y190074D01*
X197835Y189733D01*
X196632D01*
X196632Y189733D01*
X196651Y190047D01*
X196798Y190657D01*
X197053Y191231D01*
X197407Y191750D01*
X197848Y192197D01*
X198362Y192558D01*
X198932Y192822D01*
X199540Y192978D01*
X199854Y193001D01*
X199854Y194395D01*
X200772D01*
Y194854D01*
X201638D01*
Y193436D01*
D02*
G37*
G36*
X203556Y189020D02*
X203409Y188409D01*
X203154Y187835D01*
X202800Y187316D01*
X202359Y186869D01*
X201845Y186508D01*
X201275Y186244D01*
X200667Y186088D01*
X200354Y186065D01*
Y184671D01*
X199435D01*
Y184212D01*
X198569D01*
Y185630D01*
X199435D01*
Y185171D01*
X199854D01*
Y186065D01*
X199854Y186065D01*
X199540Y186088D01*
X198932Y186244D01*
X198362Y186508D01*
X197848Y186869D01*
X197407Y187316D01*
X197053Y187835D01*
X196798Y188409D01*
X196651Y189020D01*
X196632Y189333D01*
X197835D01*
Y189333D01*
X197892Y188992D01*
X198155Y188355D01*
X198598Y187825D01*
X199178Y187453D01*
X199504Y187337D01*
Y189084D01*
X200704D01*
Y187337D01*
X200704Y187337D01*
X200704D01*
X200704D01*
D01*
X201029Y187453D01*
X201609Y187825D01*
X202052Y188355D01*
X202315Y188992D01*
X202372Y189333D01*
X203574Y189333D01*
X203556Y189020D01*
D02*
G37*
G36*
X201638Y179026D02*
X200772D01*
Y179485D01*
X200354D01*
Y178590D01*
X200667Y178568D01*
X201275Y178411D01*
X201845Y178148D01*
X202359Y177787D01*
X202800Y177340D01*
X203154Y176821D01*
X203409Y176247D01*
X203556Y175636D01*
X203574Y175322D01*
X202372Y175323D01*
X202372D01*
X202315Y175664D01*
X202052Y176301D01*
X201609Y176830D01*
X201029Y177203D01*
X200704Y177319D01*
Y175571D01*
X199504D01*
Y177319D01*
X199178Y177203D01*
X198598Y176830D01*
X198155Y176301D01*
X197892Y175664D01*
X197835Y175323D01*
X196632D01*
X196632Y175322D01*
X196651Y175636D01*
X196798Y176247D01*
X197053Y176821D01*
X197407Y177340D01*
X197848Y177787D01*
X198362Y178148D01*
X198932Y178411D01*
X199540Y178568D01*
X199854Y178590D01*
X199854Y179985D01*
X200772D01*
Y180443D01*
X201638D01*
Y179026D01*
D02*
G37*
G36*
X203556Y174609D02*
X203409Y173999D01*
X203154Y173425D01*
X202800Y172906D01*
X202359Y172458D01*
X201845Y172097D01*
X201275Y171834D01*
X200667Y171677D01*
X200354Y171655D01*
Y170261D01*
X199435D01*
Y169802D01*
X198569D01*
Y171219D01*
X199435D01*
Y170761D01*
X199854D01*
Y171655D01*
X199854Y171655D01*
X199540Y171677D01*
X198932Y171834D01*
X198362Y172097D01*
X197848Y172458D01*
X197407Y172906D01*
X197053Y173425D01*
X196798Y173999D01*
X196651Y174609D01*
X196632Y174923D01*
X197835D01*
Y174923D01*
X197892Y174581D01*
X198155Y173944D01*
X198598Y173415D01*
X199178Y173042D01*
X199504Y172926D01*
Y174674D01*
X200704D01*
Y172926D01*
X200704Y172926D01*
X200704D01*
X200704D01*
D01*
X201029Y173042D01*
X201609Y173415D01*
X202052Y173944D01*
X202315Y174581D01*
X202372Y174923D01*
X203574Y174923D01*
X203556Y174609D01*
D02*
G37*
D11*
X224385Y588896D02*
D03*
Y586415D02*
D03*
X175807Y588747D02*
D03*
Y586266D02*
D03*
D21*
X207537Y610980D02*
D03*
X192685D02*
D03*
D22*
X200103Y565053D02*
D03*
Y563356D02*
D03*
Y550643D02*
D03*
Y548946D02*
D03*
Y536233D02*
D03*
Y534536D02*
D03*
Y521822D02*
D03*
Y520125D02*
D03*
Y507411D02*
D03*
Y505715D02*
D03*
Y493001D02*
D03*
Y491304D02*
D03*
Y478591D02*
D03*
Y476894D02*
D03*
Y464180D02*
D03*
Y462483D02*
D03*
Y449770D02*
D03*
Y448073D02*
D03*
Y435359D02*
D03*
Y433662D02*
D03*
Y420949D02*
D03*
Y419252D02*
D03*
Y406538D02*
D03*
Y404842D02*
D03*
Y392128D02*
D03*
Y390431D02*
D03*
Y377717D02*
D03*
Y376021D02*
D03*
Y363307D02*
D03*
Y361610D02*
D03*
X200103Y348897D02*
D03*
Y347200D02*
D03*
Y334486D02*
D03*
Y332789D02*
D03*
X200103Y320076D02*
D03*
Y318379D02*
D03*
Y305665D02*
D03*
Y303968D02*
D03*
Y291255D02*
D03*
Y289558D02*
D03*
X200103Y276844D02*
D03*
Y275147D02*
D03*
X200103Y262434D02*
D03*
Y260737D02*
D03*
X200103Y248023D02*
D03*
Y246326D02*
D03*
Y233613D02*
D03*
Y231916D02*
D03*
Y219202D02*
D03*
Y217506D02*
D03*
X200103Y204792D02*
D03*
Y203095D02*
D03*
Y190381D02*
D03*
Y188685D02*
D03*
Y175971D02*
D03*
Y174274D02*
D03*
D23*
X199002Y559593D02*
D03*
X196522D02*
D03*
X203685Y568817D02*
D03*
X201205D02*
D03*
X199002Y545182D02*
D03*
X196522D02*
D03*
X203685Y554407D02*
D03*
X201205D02*
D03*
X199002Y530772D02*
D03*
X196522D02*
D03*
X203685Y539996D02*
D03*
X201205D02*
D03*
X199002Y516362D02*
D03*
X196522D02*
D03*
X203685Y525586D02*
D03*
X201205D02*
D03*
X199002Y501951D02*
D03*
X196522D02*
D03*
X203685Y511175D02*
D03*
X201205D02*
D03*
X199002Y487541D02*
D03*
X196522D02*
D03*
X203685Y496765D02*
D03*
X201205D02*
D03*
X199002Y473130D02*
D03*
X196522D02*
D03*
X203685Y482354D02*
D03*
X201205D02*
D03*
X199002Y458720D02*
D03*
X196522D02*
D03*
X203685Y467944D02*
D03*
X201205D02*
D03*
X199002Y444309D02*
D03*
X196522D02*
D03*
X203685Y453533D02*
D03*
X201205D02*
D03*
X199002Y429899D02*
D03*
X196522D02*
D03*
X203685Y439123D02*
D03*
X201205D02*
D03*
X199002Y415488D02*
D03*
X196522D02*
D03*
X203685Y424712D02*
D03*
X201205D02*
D03*
X199002Y401078D02*
D03*
X196522D02*
D03*
X203685Y410302D02*
D03*
X201205D02*
D03*
X199002Y386667D02*
D03*
X196522D02*
D03*
X203685Y395891D02*
D03*
X201205D02*
D03*
X199002Y372257D02*
D03*
X196522D02*
D03*
X203685Y381481D02*
D03*
X201205D02*
D03*
X199002Y357846D02*
D03*
X196522D02*
D03*
X203685Y367071D02*
D03*
X201205D02*
D03*
X199002Y343436D02*
D03*
X196522D02*
D03*
X203685Y352660D02*
D03*
X201205D02*
D03*
X199002Y329026D02*
D03*
X196522D02*
D03*
X203685Y338250D02*
D03*
X201205D02*
D03*
X199002Y314615D02*
D03*
X196522D02*
D03*
X203685Y323839D02*
D03*
X201205D02*
D03*
X199002Y300205D02*
D03*
X196522D02*
D03*
X203685Y309429D02*
D03*
X201205D02*
D03*
X199002Y285794D02*
D03*
X196522D02*
D03*
X203685Y295018D02*
D03*
X201205D02*
D03*
X199002Y271384D02*
D03*
X196522D02*
D03*
X203685Y280608D02*
D03*
X201205D02*
D03*
X199002Y256973D02*
D03*
X196522D02*
D03*
X203685Y266197D02*
D03*
X201205D02*
D03*
X199002Y242563D02*
D03*
X196522D02*
D03*
X203685Y251787D02*
D03*
X201205D02*
D03*
X199002Y228152D02*
D03*
X196522D02*
D03*
X203685Y237376D02*
D03*
X201205D02*
D03*
X199002Y213742D02*
D03*
X196522D02*
D03*
X203685Y222966D02*
D03*
X201205D02*
D03*
X199002Y199331D02*
D03*
X196522D02*
D03*
X203685Y208556D02*
D03*
X201205D02*
D03*
X199002Y184921D02*
D03*
X196522D02*
D03*
X203685Y194145D02*
D03*
X201205D02*
D03*
X199002Y170510D02*
D03*
X196522D02*
D03*
X203685Y179735D02*
D03*
X201205D02*
D03*
M02*
