G04*
G04 #@! TF.GenerationSoftware,Altium Limited,Altium Designer,21.0.8 (223)*
G04*
G04 Layer_Color=16711935*
%FSLAX25Y25*%
%MOIN*%
G70*
G04*
G04 #@! TF.SameCoordinates,E0719600-9101-4F89-BDCF-51FE7D7513E6*
G04*
G04*
G04 #@! TF.FilePolarity,Negative*
G04*
G01*
G75*
%ADD11R,0.01417X0.00866*%
%ADD13R,1.26805X0.36181*%
%ADD15R,1.26805X0.11811*%
%ADD20C,0.04343*%
%ADD22R,0.00898X0.00799*%
%ADD23R,0.00866X0.01417*%
%ADD24R,0.09970X0.11150*%
%ADD25R,0.06077X0.14964*%
%ADD26R,0.09843X0.13780*%
%ADD27R,0.06077X0.15964*%
%ADD28R,0.11500X0.17498*%
%ADD29R,0.31701X0.59000*%
G36*
X231805Y355253D02*
X231805D01*
Y340843D01*
X168402D01*
Y355253D01*
X168402D01*
Y369664D01*
X231805D01*
Y355253D01*
D02*
G37*
G36*
Y326432D02*
X231805D01*
Y312022D01*
X168402D01*
Y326432D01*
X168402D01*
Y340843D01*
X231805D01*
Y326432D01*
D02*
G37*
G36*
Y297611D02*
X231805D01*
Y283201D01*
Y268791D01*
Y254380D01*
Y239970D01*
Y225559D01*
Y211149D01*
Y196738D01*
X168402D01*
Y211149D01*
Y225559D01*
Y239970D01*
Y254380D01*
Y268791D01*
Y283201D01*
Y297611D01*
X168402D01*
Y312022D01*
X231805D01*
Y297611D01*
D02*
G37*
G36*
Y182328D02*
Y167917D01*
X168402D01*
Y182328D01*
Y196738D01*
X231805D01*
Y182328D01*
D02*
G37*
G36*
X231805Y456126D02*
Y441716D01*
Y427306D01*
Y412895D01*
Y398485D01*
Y384074D01*
Y369664D01*
X168402D01*
Y384074D01*
Y398485D01*
Y412895D01*
Y427306D01*
Y441716D01*
Y456126D01*
Y470537D01*
X231805D01*
Y456126D01*
D02*
G37*
G36*
X217704Y557000D02*
X231805D01*
Y542589D01*
Y528179D01*
Y513768D01*
Y499358D01*
Y484947D01*
Y470537D01*
X168402D01*
Y484947D01*
Y499358D01*
Y513768D01*
Y528179D01*
Y542589D01*
Y557000D01*
X182503D01*
Y571410D01*
X217704D01*
Y557000D01*
D02*
G37*
%LPC*%
G36*
X210524Y368205D02*
X198995D01*
Y365936D01*
X210524D01*
Y368205D01*
D02*
G37*
G36*
X199623Y364100D02*
Y363707D01*
X200540D01*
Y364100D01*
X199623D01*
D02*
G37*
G36*
X200532Y362907D02*
X199635D01*
Y362010D01*
X200532D01*
Y362907D01*
D02*
G37*
G36*
X199623Y361207D02*
Y360813D01*
X200540D01*
Y361207D01*
X199623D01*
D02*
G37*
G36*
X201212Y358981D02*
X189683D01*
Y356712D01*
X201212D01*
Y358981D01*
D02*
G37*
G36*
X210524Y353794D02*
X198995D01*
Y351526D01*
X210524D01*
Y353794D01*
D02*
G37*
G36*
X199623Y349690D02*
Y349296D01*
X200540D01*
Y349690D01*
X199623D01*
D02*
G37*
G36*
X200532Y348497D02*
X199635D01*
Y347600D01*
X200532D01*
Y348497D01*
D02*
G37*
G36*
X199623Y346796D02*
Y346402D01*
X200540D01*
Y346796D01*
X199623D01*
D02*
G37*
G36*
X201212Y344570D02*
X189683D01*
Y342302D01*
X201212D01*
Y344570D01*
D02*
G37*
G36*
X210524Y339384D02*
X198995D01*
Y337115D01*
X210524D01*
Y339384D01*
D02*
G37*
G36*
X199623Y335279D02*
Y334886D01*
X200540D01*
Y335279D01*
X199623D01*
D02*
G37*
G36*
X200532Y334086D02*
X199635D01*
Y333189D01*
X200532D01*
Y334086D01*
D02*
G37*
G36*
X199623Y332386D02*
Y331992D01*
X200540D01*
Y332386D01*
X199623D01*
D02*
G37*
G36*
X201212Y330160D02*
X189683D01*
Y327891D01*
X201212D01*
Y330160D01*
D02*
G37*
G36*
X210524Y324974D02*
X198995D01*
Y322705D01*
X210524D01*
Y324974D01*
D02*
G37*
G36*
X199623Y320869D02*
Y320475D01*
X200540D01*
Y320869D01*
X199623D01*
D02*
G37*
G36*
X200532Y319676D02*
X199635D01*
Y318779D01*
X200532D01*
Y319676D01*
D02*
G37*
G36*
X199623Y317975D02*
Y317582D01*
X200540D01*
Y317975D01*
X199623D01*
D02*
G37*
G36*
X201212Y315749D02*
X189683D01*
Y313481D01*
X201212D01*
Y315749D01*
D02*
G37*
G36*
X210524Y310563D02*
X198995D01*
Y308295D01*
X210524D01*
Y310563D01*
D02*
G37*
G36*
X199623Y306458D02*
Y306065D01*
X200540D01*
Y306458D01*
X199623D01*
D02*
G37*
G36*
X200532Y305265D02*
X199635D01*
Y304368D01*
X200532D01*
Y305265D01*
D02*
G37*
G36*
X199623Y303565D02*
Y303171D01*
X200540D01*
Y303565D01*
X199623D01*
D02*
G37*
G36*
X201212Y301339D02*
X189683D01*
Y299070D01*
X201212D01*
Y301339D01*
D02*
G37*
G36*
X210524Y296152D02*
X198995D01*
Y293884D01*
X210524D01*
Y296152D01*
D02*
G37*
G36*
X199623Y292048D02*
Y291654D01*
X200540D01*
Y292048D01*
X199623D01*
D02*
G37*
G36*
X200532Y290855D02*
X199635D01*
Y289958D01*
X200532D01*
Y290855D01*
D02*
G37*
G36*
X199623Y289154D02*
Y288761D01*
X200540D01*
Y289154D01*
X199623D01*
D02*
G37*
G36*
X201212Y286928D02*
X189683D01*
Y284660D01*
X201212D01*
Y286928D01*
D02*
G37*
G36*
X210524Y281742D02*
X198995D01*
Y279474D01*
X210524D01*
Y281742D01*
D02*
G37*
G36*
X199623Y277638D02*
Y277244D01*
X200540D01*
Y277638D01*
X199623D01*
D02*
G37*
G36*
X200532Y276445D02*
X199635D01*
Y275547D01*
X200532D01*
Y276445D01*
D02*
G37*
G36*
X199623Y274744D02*
Y274350D01*
X200540D01*
Y274744D01*
X199623D01*
D02*
G37*
G36*
X201212Y272518D02*
X189683D01*
Y270250D01*
X201212D01*
Y272518D01*
D02*
G37*
G36*
X210524Y267332D02*
X198995D01*
Y265063D01*
X210524D01*
Y267332D01*
D02*
G37*
G36*
X199623Y263227D02*
Y262833D01*
X200540D01*
Y263227D01*
X199623D01*
D02*
G37*
G36*
X200532Y262034D02*
X199635D01*
Y261137D01*
X200532D01*
Y262034D01*
D02*
G37*
G36*
X199623Y260333D02*
Y259940D01*
X200540D01*
Y260333D01*
X199623D01*
D02*
G37*
G36*
X201212Y258107D02*
X189683D01*
Y255839D01*
X201212D01*
Y258107D01*
D02*
G37*
G36*
X210524Y252921D02*
X198995D01*
Y250653D01*
X210524D01*
Y252921D01*
D02*
G37*
G36*
X199623Y248817D02*
Y248423D01*
X200540D01*
Y248817D01*
X199623D01*
D02*
G37*
G36*
X200532Y247624D02*
X199635D01*
Y246726D01*
X200532D01*
Y247624D01*
D02*
G37*
G36*
X199623Y245923D02*
Y245529D01*
X200540D01*
Y245923D01*
X199623D01*
D02*
G37*
G36*
X201212Y243697D02*
X189683D01*
Y241428D01*
X201212D01*
Y243697D01*
D02*
G37*
G36*
X210524Y238511D02*
X198995D01*
Y236242D01*
X210524D01*
Y238511D01*
D02*
G37*
G36*
X199623Y234406D02*
Y234012D01*
X200540D01*
Y234406D01*
X199623D01*
D02*
G37*
G36*
X200532Y233213D02*
X199635D01*
Y232316D01*
X200532D01*
Y233213D01*
D02*
G37*
G36*
X199623Y231512D02*
Y231119D01*
X200540D01*
Y231512D01*
X199623D01*
D02*
G37*
G36*
X201212Y229287D02*
X189683D01*
Y227018D01*
X201212D01*
Y229287D01*
D02*
G37*
G36*
X210524Y224100D02*
X198995D01*
Y221832D01*
X210524D01*
Y224100D01*
D02*
G37*
G36*
X199623Y219996D02*
Y219602D01*
X200540D01*
Y219996D01*
X199623D01*
D02*
G37*
G36*
X200532Y218803D02*
X199635D01*
Y217906D01*
X200532D01*
Y218803D01*
D02*
G37*
G36*
X199623Y217102D02*
Y216708D01*
X200540D01*
Y217102D01*
X199623D01*
D02*
G37*
G36*
X201212Y214876D02*
X189683D01*
Y212608D01*
X201212D01*
Y214876D01*
D02*
G37*
G36*
X210524Y209690D02*
X198995D01*
Y207421D01*
X210524D01*
Y209690D01*
D02*
G37*
G36*
X199623Y205585D02*
Y205191D01*
X200540D01*
Y205585D01*
X199623D01*
D02*
G37*
G36*
X200532Y204392D02*
X199635D01*
Y203495D01*
X200532D01*
Y204392D01*
D02*
G37*
G36*
X199623Y202692D02*
Y202298D01*
X200540D01*
Y202692D01*
X199623D01*
D02*
G37*
G36*
X201212Y200466D02*
X189683D01*
Y198197D01*
X201212D01*
Y200466D01*
D02*
G37*
G36*
X210524Y195279D02*
X198995D01*
Y193011D01*
X210524D01*
Y195279D01*
D02*
G37*
G36*
X199623Y191175D02*
Y190781D01*
X200540D01*
Y191175D01*
X199623D01*
D02*
G37*
G36*
X200532Y189982D02*
X199635D01*
Y189085D01*
X200532D01*
Y189982D01*
D02*
G37*
G36*
X199623Y188281D02*
Y187887D01*
X200540D01*
Y188281D01*
X199623D01*
D02*
G37*
G36*
X201212Y186055D02*
X189683D01*
Y183787D01*
X201212D01*
Y186055D01*
D02*
G37*
G36*
X210524Y180869D02*
X198995D01*
Y178600D01*
X210524D01*
Y180869D01*
D02*
G37*
G36*
X199623Y176764D02*
Y176371D01*
X200540D01*
Y176764D01*
X199623D01*
D02*
G37*
G36*
X200532Y175571D02*
X199635D01*
Y174674D01*
X200532D01*
Y175571D01*
D02*
G37*
G36*
X199623Y173871D02*
Y173477D01*
X200540D01*
Y173871D01*
X199623D01*
D02*
G37*
G36*
X201212Y171645D02*
X189683D01*
Y169376D01*
X201212D01*
Y171645D01*
D02*
G37*
G36*
X210524Y469078D02*
X198995D01*
Y466810D01*
X210524D01*
Y469078D01*
D02*
G37*
G36*
X199623Y464973D02*
Y464580D01*
X200540D01*
Y464973D01*
X199623D01*
D02*
G37*
G36*
X200532Y463781D02*
X199635D01*
Y462883D01*
X200532D01*
Y463781D01*
D02*
G37*
G36*
X199623Y462080D02*
Y461686D01*
X200540D01*
Y462080D01*
X199623D01*
D02*
G37*
G36*
X201212Y459854D02*
X189683D01*
Y457585D01*
X201212D01*
Y459854D01*
D02*
G37*
G36*
X210524Y454668D02*
X198995D01*
Y452399D01*
X210524D01*
Y454668D01*
D02*
G37*
G36*
X199623Y450563D02*
Y450169D01*
X200540D01*
Y450563D01*
X199623D01*
D02*
G37*
G36*
X200532Y449370D02*
X199635D01*
Y448473D01*
X200532D01*
Y449370D01*
D02*
G37*
G36*
X199623Y447669D02*
Y447276D01*
X200540D01*
Y447669D01*
X199623D01*
D02*
G37*
G36*
X201212Y445443D02*
X189683D01*
Y443175D01*
X201212D01*
Y445443D01*
D02*
G37*
G36*
X210524Y440257D02*
X198995D01*
Y437989D01*
X210524D01*
Y440257D01*
D02*
G37*
G36*
X199623Y436153D02*
Y435759D01*
X200540D01*
Y436153D01*
X199623D01*
D02*
G37*
G36*
X200532Y434960D02*
X199635D01*
Y434062D01*
X200532D01*
Y434960D01*
D02*
G37*
G36*
X199623Y433259D02*
Y432865D01*
X200540D01*
Y433259D01*
X199623D01*
D02*
G37*
G36*
X201212Y431033D02*
X189683D01*
Y428764D01*
X201212D01*
Y431033D01*
D02*
G37*
G36*
X210524Y425847D02*
X198995D01*
Y423578D01*
X210524D01*
Y425847D01*
D02*
G37*
G36*
X199623Y421742D02*
Y421348D01*
X200540D01*
Y421742D01*
X199623D01*
D02*
G37*
G36*
X200532Y420549D02*
X199635D01*
Y419652D01*
X200532D01*
Y420549D01*
D02*
G37*
G36*
X199623Y418848D02*
Y418455D01*
X200540D01*
Y418848D01*
X199623D01*
D02*
G37*
G36*
X201212Y416623D02*
X189683D01*
Y414354D01*
X201212D01*
Y416623D01*
D02*
G37*
G36*
X210524Y411436D02*
X198995D01*
Y409168D01*
X210524D01*
Y411436D01*
D02*
G37*
G36*
X199623Y407332D02*
Y406938D01*
X200540D01*
Y407332D01*
X199623D01*
D02*
G37*
G36*
X200532Y406139D02*
X199635D01*
Y405241D01*
X200532D01*
Y406139D01*
D02*
G37*
G36*
X199623Y404438D02*
Y404044D01*
X200540D01*
Y404438D01*
X199623D01*
D02*
G37*
G36*
X201212Y402212D02*
X189683D01*
Y399944D01*
X201212D01*
Y402212D01*
D02*
G37*
G36*
X210524Y397026D02*
X198995D01*
Y394757D01*
X210524D01*
Y397026D01*
D02*
G37*
G36*
X199623Y392921D02*
Y392528D01*
X200540D01*
Y392921D01*
X199623D01*
D02*
G37*
G36*
X200532Y391728D02*
X199635D01*
Y390831D01*
X200532D01*
Y391728D01*
D02*
G37*
G36*
X199623Y390027D02*
Y389634D01*
X200540D01*
Y390027D01*
X199623D01*
D02*
G37*
G36*
X201212Y387802D02*
X189683D01*
Y385533D01*
X201212D01*
Y387802D01*
D02*
G37*
G36*
X210524Y382615D02*
X198995D01*
Y380347D01*
X210524D01*
Y382615D01*
D02*
G37*
G36*
X199623Y378511D02*
Y378117D01*
X200540D01*
Y378511D01*
X199623D01*
D02*
G37*
G36*
X200532Y377318D02*
X199635D01*
Y376421D01*
X200532D01*
Y377318D01*
D02*
G37*
G36*
X199623Y375617D02*
Y375223D01*
X200540D01*
Y375617D01*
X199623D01*
D02*
G37*
G36*
X201212Y373391D02*
X189683D01*
Y371123D01*
X201212D01*
Y373391D01*
D02*
G37*
G36*
X210528Y569951D02*
X199000D01*
Y567683D01*
X210528D01*
Y569951D01*
D02*
G37*
G36*
X199627Y565847D02*
Y565453D01*
X200545D01*
Y565847D01*
X199627D01*
D02*
G37*
G36*
X200537Y564654D02*
X199639D01*
Y563757D01*
X200537D01*
Y564654D01*
D02*
G37*
G36*
X199627Y562953D02*
Y562559D01*
X200545D01*
Y562953D01*
X199627D01*
D02*
G37*
G36*
X201216Y560727D02*
X189688D01*
Y558459D01*
X201216D01*
Y560727D01*
D02*
G37*
G36*
X210524Y555541D02*
X198995D01*
Y553272D01*
X210524D01*
Y555541D01*
D02*
G37*
G36*
X199623Y551436D02*
Y551043D01*
X200540D01*
Y551436D01*
X199623D01*
D02*
G37*
G36*
X200532Y550243D02*
X199635D01*
Y549346D01*
X200532D01*
Y550243D01*
D02*
G37*
G36*
X199623Y548543D02*
Y548149D01*
X200540D01*
Y548543D01*
X199623D01*
D02*
G37*
G36*
X201212Y546317D02*
X189683D01*
Y544048D01*
X201212D01*
Y546317D01*
D02*
G37*
G36*
X210524Y541130D02*
X198995D01*
Y538862D01*
X210524D01*
Y541130D01*
D02*
G37*
G36*
X199623Y537026D02*
Y536632D01*
X200540D01*
Y537026D01*
X199623D01*
D02*
G37*
G36*
X200532Y535833D02*
X199635D01*
Y534936D01*
X200532D01*
Y535833D01*
D02*
G37*
G36*
X199623Y534132D02*
Y533738D01*
X200540D01*
Y534132D01*
X199623D01*
D02*
G37*
G36*
X201212Y531906D02*
X189683D01*
Y529638D01*
X201212D01*
Y531906D01*
D02*
G37*
G36*
X210524Y526720D02*
X198995D01*
Y524451D01*
X210524D01*
Y526720D01*
D02*
G37*
G36*
X199623Y522615D02*
Y522222D01*
X200540D01*
Y522615D01*
X199623D01*
D02*
G37*
G36*
X200532Y521422D02*
X199635D01*
Y520525D01*
X200532D01*
Y521422D01*
D02*
G37*
G36*
X199623Y519722D02*
Y519328D01*
X200540D01*
Y519722D01*
X199623D01*
D02*
G37*
G36*
X201212Y517496D02*
X189683D01*
Y515227D01*
X201212D01*
Y517496D01*
D02*
G37*
G36*
X210524Y512309D02*
X198995D01*
Y510041D01*
X210524D01*
Y512309D01*
D02*
G37*
G36*
X199623Y508205D02*
Y507811D01*
X200540D01*
Y508205D01*
X199623D01*
D02*
G37*
G36*
X200532Y507012D02*
X199635D01*
Y506115D01*
X200532D01*
Y507012D01*
D02*
G37*
G36*
X199623Y505311D02*
Y504917D01*
X200540D01*
Y505311D01*
X199623D01*
D02*
G37*
G36*
X201212Y503085D02*
X189683D01*
Y500817D01*
X201212D01*
Y503085D01*
D02*
G37*
G36*
X210524Y497899D02*
X198995D01*
Y495631D01*
X210524D01*
Y497899D01*
D02*
G37*
G36*
X199623Y493794D02*
Y493401D01*
X200540D01*
Y493794D01*
X199623D01*
D02*
G37*
G36*
X200532Y492601D02*
X199635D01*
Y491704D01*
X200532D01*
Y492601D01*
D02*
G37*
G36*
X199623Y490901D02*
Y490507D01*
X200540D01*
Y490901D01*
X199623D01*
D02*
G37*
G36*
X201212Y488675D02*
X189683D01*
Y486406D01*
X201212D01*
Y488675D01*
D02*
G37*
G36*
X210524Y483489D02*
X198995D01*
Y481220D01*
X210524D01*
Y483489D01*
D02*
G37*
G36*
X199623Y479384D02*
Y478990D01*
X200540D01*
Y479384D01*
X199623D01*
D02*
G37*
G36*
X200532Y478191D02*
X199635D01*
Y477294D01*
X200532D01*
Y478191D01*
D02*
G37*
G36*
X199623Y476490D02*
Y476096D01*
X200540D01*
Y476490D01*
X199623D01*
D02*
G37*
G36*
X201212Y474264D02*
X189683D01*
Y471996D01*
X201212D01*
Y474264D01*
D02*
G37*
%LPD*%
D11*
X224385Y588896D02*
D03*
Y586415D02*
D03*
X175807Y588747D02*
D03*
Y586266D02*
D03*
D13*
X168402Y142258D02*
D03*
D15*
Y109906D02*
D03*
D20*
X207537Y610980D02*
D03*
X192685D02*
D03*
D22*
X200103Y565053D02*
D03*
Y563356D02*
D03*
Y550643D02*
D03*
Y548946D02*
D03*
Y536233D02*
D03*
Y534536D02*
D03*
Y521822D02*
D03*
Y520125D02*
D03*
Y507411D02*
D03*
Y505715D02*
D03*
Y493001D02*
D03*
Y491304D02*
D03*
Y478591D02*
D03*
Y476894D02*
D03*
Y464180D02*
D03*
Y462483D02*
D03*
Y449770D02*
D03*
Y448073D02*
D03*
Y435359D02*
D03*
Y433662D02*
D03*
Y420949D02*
D03*
Y419252D02*
D03*
Y406538D02*
D03*
Y404842D02*
D03*
Y392128D02*
D03*
Y390431D02*
D03*
Y377717D02*
D03*
Y376021D02*
D03*
Y363307D02*
D03*
Y361610D02*
D03*
X200103Y348897D02*
D03*
Y347200D02*
D03*
Y334486D02*
D03*
Y332789D02*
D03*
X200103Y320076D02*
D03*
Y318379D02*
D03*
Y305665D02*
D03*
Y303968D02*
D03*
Y291255D02*
D03*
Y289558D02*
D03*
X200103Y276844D02*
D03*
Y275147D02*
D03*
X200103Y262434D02*
D03*
Y260737D02*
D03*
X200103Y248023D02*
D03*
Y246326D02*
D03*
Y233613D02*
D03*
Y231916D02*
D03*
Y219202D02*
D03*
Y217506D02*
D03*
X200103Y204792D02*
D03*
Y203095D02*
D03*
Y190381D02*
D03*
Y188685D02*
D03*
Y175971D02*
D03*
Y174274D02*
D03*
D23*
X199002Y559593D02*
D03*
X196522D02*
D03*
X203685Y568817D02*
D03*
X201205D02*
D03*
X199002Y545182D02*
D03*
X196522D02*
D03*
X203685Y554407D02*
D03*
X201205D02*
D03*
X199002Y530772D02*
D03*
X196522D02*
D03*
X203685Y539996D02*
D03*
X201205D02*
D03*
X199002Y516362D02*
D03*
X196522D02*
D03*
X203685Y525586D02*
D03*
X201205D02*
D03*
X199002Y501951D02*
D03*
X196522D02*
D03*
X203685Y511175D02*
D03*
X201205D02*
D03*
X199002Y487541D02*
D03*
X196522D02*
D03*
X203685Y496765D02*
D03*
X201205D02*
D03*
X199002Y473130D02*
D03*
X196522D02*
D03*
X203685Y482354D02*
D03*
X201205D02*
D03*
X199002Y458720D02*
D03*
X196522D02*
D03*
X203685Y467944D02*
D03*
X201205D02*
D03*
X199002Y444309D02*
D03*
X196522D02*
D03*
X203685Y453533D02*
D03*
X201205D02*
D03*
X199002Y429899D02*
D03*
X196522D02*
D03*
X203685Y439123D02*
D03*
X201205D02*
D03*
X199002Y415488D02*
D03*
X196522D02*
D03*
X203685Y424712D02*
D03*
X201205D02*
D03*
X199002Y401078D02*
D03*
X196522D02*
D03*
X203685Y410302D02*
D03*
X201205D02*
D03*
X199002Y386667D02*
D03*
X196522D02*
D03*
X203685Y395891D02*
D03*
X201205D02*
D03*
X199002Y372257D02*
D03*
X196522D02*
D03*
X203685Y381481D02*
D03*
X201205D02*
D03*
X199002Y357846D02*
D03*
X196522D02*
D03*
X203685Y367071D02*
D03*
X201205D02*
D03*
X199002Y343436D02*
D03*
X196522D02*
D03*
X203685Y352660D02*
D03*
X201205D02*
D03*
X199002Y329026D02*
D03*
X196522D02*
D03*
X203685Y338250D02*
D03*
X201205D02*
D03*
X199002Y314615D02*
D03*
X196522D02*
D03*
X203685Y323839D02*
D03*
X201205D02*
D03*
X199002Y300205D02*
D03*
X196522D02*
D03*
X203685Y309429D02*
D03*
X201205D02*
D03*
X199002Y285794D02*
D03*
X196522D02*
D03*
X203685Y295018D02*
D03*
X201205D02*
D03*
X199002Y271384D02*
D03*
X196522D02*
D03*
X203685Y280608D02*
D03*
X201205D02*
D03*
X199002Y256973D02*
D03*
X196522D02*
D03*
X203685Y266197D02*
D03*
X201205D02*
D03*
X199002Y242563D02*
D03*
X196522D02*
D03*
X203685Y251787D02*
D03*
X201205D02*
D03*
X199002Y228152D02*
D03*
X196522D02*
D03*
X203685Y237376D02*
D03*
X201205D02*
D03*
X199002Y213742D02*
D03*
X196522D02*
D03*
X203685Y222966D02*
D03*
X201205D02*
D03*
X199002Y199331D02*
D03*
X196522D02*
D03*
X203685Y208556D02*
D03*
X201205D02*
D03*
X199002Y184921D02*
D03*
X196522D02*
D03*
X203685Y194145D02*
D03*
X201205D02*
D03*
X199002Y170510D02*
D03*
X196522D02*
D03*
X203685Y179735D02*
D03*
X201205D02*
D03*
D24*
X178485Y562180D02*
D03*
D25*
X171441Y563441D02*
D03*
D26*
X191702Y625313D02*
D03*
X174898D02*
D03*
X225309D02*
D03*
X208505D02*
D03*
D27*
X228766Y562941D02*
D03*
D28*
X222080Y559026D02*
D03*
D29*
X215954Y139257D02*
D03*
M02*
