G04*
G04 #@! TF.GenerationSoftware,Altium Limited,Altium Designer,21.0.8 (223)*
G04*
G04 Layer_Color=128*
%FSLAX25Y25*%
%MOIN*%
G70*
G04*
G04 #@! TF.SameCoordinates,E0719600-9101-4F89-BDCF-51FE7D7513E6*
G04*
G04*
G04 #@! TF.FilePolarity,Positive*
G04*
G01*
G75*
%ADD11R,0.01417X0.00866*%
%ADD22R,0.00898X0.00799*%
%ADD23R,0.00866X0.01417*%
D11*
X224385Y588896D02*
D03*
Y586415D02*
D03*
X175807Y588747D02*
D03*
Y586266D02*
D03*
D22*
X200103Y565053D02*
D03*
Y563356D02*
D03*
Y550643D02*
D03*
Y548946D02*
D03*
Y536233D02*
D03*
Y534536D02*
D03*
Y521822D02*
D03*
Y520125D02*
D03*
Y507411D02*
D03*
Y505715D02*
D03*
Y493001D02*
D03*
Y491304D02*
D03*
Y478591D02*
D03*
Y476894D02*
D03*
Y464180D02*
D03*
Y462483D02*
D03*
Y449770D02*
D03*
Y448073D02*
D03*
Y435359D02*
D03*
Y433662D02*
D03*
Y420949D02*
D03*
Y419252D02*
D03*
Y406538D02*
D03*
Y404842D02*
D03*
Y392128D02*
D03*
Y390431D02*
D03*
Y377717D02*
D03*
Y376021D02*
D03*
Y363307D02*
D03*
Y361610D02*
D03*
X200103Y348897D02*
D03*
Y347200D02*
D03*
Y334486D02*
D03*
Y332789D02*
D03*
X200103Y320076D02*
D03*
Y318379D02*
D03*
Y305665D02*
D03*
Y303968D02*
D03*
Y291255D02*
D03*
Y289558D02*
D03*
X200103Y276844D02*
D03*
Y275147D02*
D03*
X200103Y262434D02*
D03*
Y260737D02*
D03*
X200103Y248023D02*
D03*
Y246326D02*
D03*
Y233613D02*
D03*
Y231916D02*
D03*
Y219202D02*
D03*
Y217506D02*
D03*
X200103Y204792D02*
D03*
Y203095D02*
D03*
Y190381D02*
D03*
Y188685D02*
D03*
Y175971D02*
D03*
Y174274D02*
D03*
D23*
X199002Y559593D02*
D03*
X196522D02*
D03*
X203685Y568817D02*
D03*
X201205D02*
D03*
X199002Y545182D02*
D03*
X196522D02*
D03*
X203685Y554407D02*
D03*
X201205D02*
D03*
X199002Y530772D02*
D03*
X196522D02*
D03*
X203685Y539996D02*
D03*
X201205D02*
D03*
X199002Y516362D02*
D03*
X196522D02*
D03*
X203685Y525586D02*
D03*
X201205D02*
D03*
X199002Y501951D02*
D03*
X196522D02*
D03*
X203685Y511175D02*
D03*
X201205D02*
D03*
X199002Y487541D02*
D03*
X196522D02*
D03*
X203685Y496765D02*
D03*
X201205D02*
D03*
X199002Y473130D02*
D03*
X196522D02*
D03*
X203685Y482354D02*
D03*
X201205D02*
D03*
X199002Y458720D02*
D03*
X196522D02*
D03*
X203685Y467944D02*
D03*
X201205D02*
D03*
X199002Y444309D02*
D03*
X196522D02*
D03*
X203685Y453533D02*
D03*
X201205D02*
D03*
X199002Y429899D02*
D03*
X196522D02*
D03*
X203685Y439123D02*
D03*
X201205D02*
D03*
X199002Y415488D02*
D03*
X196522D02*
D03*
X203685Y424712D02*
D03*
X201205D02*
D03*
X199002Y401078D02*
D03*
X196522D02*
D03*
X203685Y410302D02*
D03*
X201205D02*
D03*
X199002Y386667D02*
D03*
X196522D02*
D03*
X203685Y395891D02*
D03*
X201205D02*
D03*
X199002Y372257D02*
D03*
X196522D02*
D03*
X203685Y381481D02*
D03*
X201205D02*
D03*
X199002Y357846D02*
D03*
X196522D02*
D03*
X203685Y367071D02*
D03*
X201205D02*
D03*
X199002Y343436D02*
D03*
X196522D02*
D03*
X203685Y352660D02*
D03*
X201205D02*
D03*
X199002Y329026D02*
D03*
X196522D02*
D03*
X203685Y338250D02*
D03*
X201205D02*
D03*
X199002Y314615D02*
D03*
X196522D02*
D03*
X203685Y323839D02*
D03*
X201205D02*
D03*
X199002Y300205D02*
D03*
X196522D02*
D03*
X203685Y309429D02*
D03*
X201205D02*
D03*
X199002Y285794D02*
D03*
X196522D02*
D03*
X203685Y295018D02*
D03*
X201205D02*
D03*
X199002Y271384D02*
D03*
X196522D02*
D03*
X203685Y280608D02*
D03*
X201205D02*
D03*
X199002Y256973D02*
D03*
X196522D02*
D03*
X203685Y266197D02*
D03*
X201205D02*
D03*
X199002Y242563D02*
D03*
X196522D02*
D03*
X203685Y251787D02*
D03*
X201205D02*
D03*
X199002Y228152D02*
D03*
X196522D02*
D03*
X203685Y237376D02*
D03*
X201205D02*
D03*
X199002Y213742D02*
D03*
X196522D02*
D03*
X203685Y222966D02*
D03*
X201205D02*
D03*
X199002Y199331D02*
D03*
X196522D02*
D03*
X203685Y208556D02*
D03*
X201205D02*
D03*
X199002Y184921D02*
D03*
X196522D02*
D03*
X203685Y194145D02*
D03*
X201205D02*
D03*
X199002Y170510D02*
D03*
X196522D02*
D03*
X203685Y179735D02*
D03*
X201205D02*
D03*
M02*
