G04*
G04 #@! TF.GenerationSoftware,Altium Limited,Altium Designer,21.0.8 (223)*
G04*
G04 Layer_Color=8388736*
%FSLAX25Y25*%
%MOIN*%
G70*
G04*
G04 #@! TF.SameCoordinates,E0719600-9101-4F89-BDCF-51FE7D7513E6*
G04*
G04*
G04 #@! TF.FilePolarity,Negative*
G04*
G01*
G75*
%ADD11R,0.01417X0.00866*%
%ADD12R,0.00799X0.00898*%
%ADD13R,1.26805X0.36181*%
%ADD14R,0.31701X0.60500*%
%ADD15R,1.26805X0.11811*%
%ADD16R,0.21195X0.14964*%
%ADD17R,0.22210X0.17558*%
%ADD18R,0.21608X0.17558*%
%ADD19R,0.21107X0.14964*%
%ADD20C,0.04343*%
G36*
X231805Y355253D02*
X231805D01*
Y340843D01*
X168402D01*
Y355253D01*
X168402D01*
Y369664D01*
X231805D01*
Y355253D01*
D02*
G37*
G36*
Y326432D02*
X231805D01*
Y312022D01*
X168402D01*
Y326432D01*
X168402D01*
Y340843D01*
X231805D01*
Y326432D01*
D02*
G37*
G36*
Y297611D02*
X231805D01*
Y283201D01*
Y268791D01*
Y254380D01*
Y239970D01*
Y225559D01*
Y211149D01*
Y196738D01*
X168402D01*
Y211149D01*
Y225559D01*
Y239970D01*
Y254380D01*
Y268791D01*
Y283201D01*
Y297611D01*
X168402D01*
Y312022D01*
X231805D01*
Y297611D01*
D02*
G37*
G36*
Y182328D02*
Y167917D01*
X168402D01*
Y182328D01*
Y196738D01*
X231805D01*
Y182328D01*
D02*
G37*
G36*
X231805Y456126D02*
Y441716D01*
Y427306D01*
Y412895D01*
Y398485D01*
Y384074D01*
Y369664D01*
X168402D01*
Y384074D01*
Y398485D01*
Y412895D01*
Y427306D01*
Y441716D01*
Y456126D01*
Y470537D01*
X231805D01*
Y456126D01*
D02*
G37*
G36*
X204733Y557000D02*
X231805D01*
Y542589D01*
Y528179D01*
Y513768D01*
Y499358D01*
Y484947D01*
Y470537D01*
X168402D01*
Y484947D01*
Y499358D01*
Y513768D01*
Y528179D01*
Y542589D01*
Y557000D01*
X195474D01*
Y571410D01*
X204733D01*
Y557000D01*
D02*
G37*
%LPC*%
G36*
X201355Y360581D02*
Y359683D01*
X201749D01*
Y360581D01*
X201355D01*
D02*
G37*
G36*
X198458Y360581D02*
Y359683D01*
X198852D01*
Y360581D01*
X198458D01*
D02*
G37*
G36*
X200556Y360579D02*
X199655D01*
Y359682D01*
X200556D01*
Y360579D01*
D02*
G37*
G36*
X201355Y346170D02*
Y345273D01*
X201749D01*
Y346170D01*
X201355D01*
D02*
G37*
G36*
X198458Y346170D02*
Y345273D01*
X198852D01*
Y346170D01*
X198458D01*
D02*
G37*
G36*
X200556Y346169D02*
X199655D01*
Y345271D01*
X200556D01*
Y346169D01*
D02*
G37*
G36*
X201355Y331760D02*
Y330862D01*
X201749D01*
Y331760D01*
X201355D01*
D02*
G37*
G36*
X198458Y331760D02*
Y330862D01*
X198852D01*
Y331760D01*
X198458D01*
D02*
G37*
G36*
X200556Y331759D02*
X199655D01*
Y330861D01*
X200556D01*
Y331759D01*
D02*
G37*
G36*
X201355Y317350D02*
Y316452D01*
X201749D01*
Y317350D01*
X201355D01*
D02*
G37*
G36*
X198458Y317350D02*
Y316452D01*
X198852D01*
Y317350D01*
X198458D01*
D02*
G37*
G36*
X200556Y317348D02*
X199655D01*
Y316451D01*
X200556D01*
Y317348D01*
D02*
G37*
G36*
X201355Y302939D02*
Y302041D01*
X201749D01*
Y302939D01*
X201355D01*
D02*
G37*
G36*
X198458Y302939D02*
Y302041D01*
X198852D01*
Y302939D01*
X198458D01*
D02*
G37*
G36*
X200556Y302938D02*
X199655D01*
Y302040D01*
X200556D01*
Y302938D01*
D02*
G37*
G36*
X201355Y288529D02*
Y287631D01*
X201749D01*
Y288529D01*
X201355D01*
D02*
G37*
G36*
X198458Y288528D02*
Y287631D01*
X198852D01*
Y288528D01*
X198458D01*
D02*
G37*
G36*
X200556Y288527D02*
X199655D01*
Y287630D01*
X200556D01*
Y288527D01*
D02*
G37*
G36*
X201355Y274118D02*
Y273220D01*
X201749D01*
Y274118D01*
X201355D01*
D02*
G37*
G36*
X198458Y274118D02*
Y273220D01*
X198852D01*
Y274118D01*
X198458D01*
D02*
G37*
G36*
X200556Y274117D02*
X199655D01*
Y273219D01*
X200556D01*
Y274117D01*
D02*
G37*
G36*
X201355Y259708D02*
Y258810D01*
X201749D01*
Y259708D01*
X201355D01*
D02*
G37*
G36*
X198458Y259708D02*
Y258810D01*
X198852D01*
Y259708D01*
X198458D01*
D02*
G37*
G36*
X200556Y259706D02*
X199655D01*
Y258809D01*
X200556D01*
Y259706D01*
D02*
G37*
G36*
X201355Y245297D02*
Y244399D01*
X201749D01*
Y245297D01*
X201355D01*
D02*
G37*
G36*
X198458Y245297D02*
Y244399D01*
X198852D01*
Y245297D01*
X198458D01*
D02*
G37*
G36*
X200556Y245296D02*
X199655D01*
Y244398D01*
X200556D01*
Y245296D01*
D02*
G37*
G36*
X201355Y230887D02*
Y229989D01*
X201749D01*
Y230887D01*
X201355D01*
D02*
G37*
G36*
X198458Y230887D02*
Y229989D01*
X198852D01*
Y230887D01*
X198458D01*
D02*
G37*
G36*
X200556Y230885D02*
X199655D01*
Y229988D01*
X200556D01*
Y230885D01*
D02*
G37*
G36*
X201355Y216476D02*
Y215579D01*
X201749D01*
Y216476D01*
X201355D01*
D02*
G37*
G36*
X198458Y216476D02*
Y215579D01*
X198852D01*
Y216476D01*
X198458D01*
D02*
G37*
G36*
X200556Y216475D02*
X199655D01*
Y215577D01*
X200556D01*
Y216475D01*
D02*
G37*
G36*
X201355Y202066D02*
Y201168D01*
X201749D01*
Y202066D01*
X201355D01*
D02*
G37*
G36*
X198458Y202066D02*
Y201168D01*
X198852D01*
Y202066D01*
X198458D01*
D02*
G37*
G36*
X200556Y202064D02*
X199655D01*
Y201167D01*
X200556D01*
Y202064D01*
D02*
G37*
G36*
X201355Y187655D02*
Y186758D01*
X201749D01*
Y187655D01*
X201355D01*
D02*
G37*
G36*
X198458Y187655D02*
Y186758D01*
X198852D01*
Y187655D01*
X198458D01*
D02*
G37*
G36*
X200556Y187654D02*
X199655D01*
Y186756D01*
X200556D01*
Y187654D01*
D02*
G37*
G36*
X201355Y173245D02*
Y172347D01*
X201749D01*
Y173245D01*
X201355D01*
D02*
G37*
G36*
X198458Y173245D02*
Y172347D01*
X198852D01*
Y173245D01*
X198458D01*
D02*
G37*
G36*
X200556Y173243D02*
X199655D01*
Y172346D01*
X200556D01*
Y173243D01*
D02*
G37*
G36*
X201355Y461454D02*
Y460556D01*
X201749D01*
Y461454D01*
X201355D01*
D02*
G37*
G36*
X198458Y461454D02*
Y460556D01*
X198852D01*
Y461454D01*
X198458D01*
D02*
G37*
G36*
X200556Y461453D02*
X199655D01*
Y460555D01*
X200556D01*
Y461453D01*
D02*
G37*
G36*
X201355Y447044D02*
Y446146D01*
X201749D01*
Y447044D01*
X201355D01*
D02*
G37*
G36*
X198458Y447044D02*
Y446146D01*
X198852D01*
Y447044D01*
X198458D01*
D02*
G37*
G36*
X200556Y447042D02*
X199655D01*
Y446145D01*
X200556D01*
Y447042D01*
D02*
G37*
G36*
X201355Y432633D02*
Y431736D01*
X201749D01*
Y432633D01*
X201355D01*
D02*
G37*
G36*
X198458Y432633D02*
Y431736D01*
X198852D01*
Y432633D01*
X198458D01*
D02*
G37*
G36*
X200556Y432632D02*
X199655D01*
Y431734D01*
X200556D01*
Y432632D01*
D02*
G37*
G36*
X201355Y418223D02*
Y417325D01*
X201749D01*
Y418223D01*
X201355D01*
D02*
G37*
G36*
X198458Y418223D02*
Y417325D01*
X198852D01*
Y418223D01*
X198458D01*
D02*
G37*
G36*
X200556Y418221D02*
X199655D01*
Y417324D01*
X200556D01*
Y418221D01*
D02*
G37*
G36*
X201355Y403812D02*
Y402915D01*
X201749D01*
Y403812D01*
X201355D01*
D02*
G37*
G36*
X198458Y403812D02*
Y402915D01*
X198852D01*
Y403812D01*
X198458D01*
D02*
G37*
G36*
X200556Y403811D02*
X199655D01*
Y402913D01*
X200556D01*
Y403811D01*
D02*
G37*
G36*
X201355Y389402D02*
Y388504D01*
X201749D01*
Y389402D01*
X201355D01*
D02*
G37*
G36*
X198458Y389402D02*
Y388504D01*
X198852D01*
Y389402D01*
X198458D01*
D02*
G37*
G36*
X200556Y389400D02*
X199655D01*
Y388503D01*
X200556D01*
Y389400D01*
D02*
G37*
G36*
X201355Y374991D02*
Y374094D01*
X201749D01*
Y374991D01*
X201355D01*
D02*
G37*
G36*
X198458Y374991D02*
Y374094D01*
X198852D01*
Y374991D01*
X198458D01*
D02*
G37*
G36*
X200556Y374990D02*
X199655D01*
Y374092D01*
X200556D01*
Y374990D01*
D02*
G37*
G36*
X201345Y562327D02*
Y561430D01*
X201739D01*
Y562327D01*
X201345D01*
D02*
G37*
G36*
X198448Y562327D02*
Y561430D01*
X198842D01*
Y562327D01*
X198448D01*
D02*
G37*
G36*
X200546Y562326D02*
X199645D01*
Y561428D01*
X200546D01*
Y562326D01*
D02*
G37*
G36*
X201355Y547917D02*
Y547019D01*
X201749D01*
Y547917D01*
X201355D01*
D02*
G37*
G36*
X198458Y547917D02*
Y547019D01*
X198852D01*
Y547917D01*
X198458D01*
D02*
G37*
G36*
X200556Y547916D02*
X199655D01*
Y547018D01*
X200556D01*
Y547916D01*
D02*
G37*
G36*
X201355Y533506D02*
Y532609D01*
X201749D01*
Y533506D01*
X201355D01*
D02*
G37*
G36*
X198458Y533506D02*
Y532609D01*
X198852D01*
Y533506D01*
X198458D01*
D02*
G37*
G36*
X200556Y533505D02*
X199655D01*
Y532607D01*
X200556D01*
Y533505D01*
D02*
G37*
G36*
X201355Y519096D02*
Y518198D01*
X201749D01*
Y519096D01*
X201355D01*
D02*
G37*
G36*
X198458Y519096D02*
Y518198D01*
X198852D01*
Y519096D01*
X198458D01*
D02*
G37*
G36*
X200556Y519095D02*
X199655D01*
Y518197D01*
X200556D01*
Y519095D01*
D02*
G37*
G36*
X201355Y504685D02*
Y503788D01*
X201749D01*
Y504685D01*
X201355D01*
D02*
G37*
G36*
X198458Y504685D02*
Y503788D01*
X198852D01*
Y504685D01*
X198458D01*
D02*
G37*
G36*
X200556Y504684D02*
X199655D01*
Y503787D01*
X200556D01*
Y504684D01*
D02*
G37*
G36*
X201355Y490275D02*
Y489377D01*
X201749D01*
Y490275D01*
X201355D01*
D02*
G37*
G36*
X198458Y490275D02*
Y489377D01*
X198852D01*
Y490275D01*
X198458D01*
D02*
G37*
G36*
X200556Y490274D02*
X199655D01*
Y489376D01*
X200556D01*
Y490274D01*
D02*
G37*
G36*
X201355Y475865D02*
Y474967D01*
X201749D01*
Y475865D01*
X201355D01*
D02*
G37*
G36*
X198458Y475865D02*
Y474967D01*
X198852D01*
Y475865D01*
X198458D01*
D02*
G37*
G36*
X200556Y475863D02*
X199655D01*
Y474965D01*
X200556D01*
Y475863D01*
D02*
G37*
%LPD*%
D11*
X206000Y586266D02*
D03*
Y588747D02*
D03*
X194207Y586266D02*
D03*
Y588747D02*
D03*
D12*
X199255Y561875D02*
D03*
X200952D02*
D03*
X199255Y547465D02*
D03*
X200952D02*
D03*
X199255Y533054D02*
D03*
X200952D02*
D03*
X199255Y518644D02*
D03*
X200952D02*
D03*
X199255Y504233D02*
D03*
X200952D02*
D03*
X199255Y489823D02*
D03*
X200952D02*
D03*
X199255Y475413D02*
D03*
X200952D02*
D03*
X199255Y461002D02*
D03*
X200952D02*
D03*
X199255Y446592D02*
D03*
X200952D02*
D03*
X199255Y432181D02*
D03*
X200952D02*
D03*
X199255Y417771D02*
D03*
X200952D02*
D03*
X199255Y403360D02*
D03*
X200952D02*
D03*
X199255Y388950D02*
D03*
X200952D02*
D03*
X199255Y374539D02*
D03*
X200952D02*
D03*
X199255Y360129D02*
D03*
X200952D02*
D03*
X199255Y345718D02*
D03*
X200952D02*
D03*
X199255Y331308D02*
D03*
X200952D02*
D03*
X199255Y316898D02*
D03*
X200952D02*
D03*
X199255Y302487D02*
D03*
X200952D02*
D03*
X199255Y288076D02*
D03*
X200952D02*
D03*
X199255Y273666D02*
D03*
X200952D02*
D03*
X199255Y259256D02*
D03*
X200952D02*
D03*
X199255Y244845D02*
D03*
X200952D02*
D03*
X199255Y230435D02*
D03*
X200952D02*
D03*
X199255Y216024D02*
D03*
X200952D02*
D03*
X199255Y201614D02*
D03*
X200952D02*
D03*
X199255Y187203D02*
D03*
X200952D02*
D03*
X199255Y172793D02*
D03*
X200952D02*
D03*
D13*
X168402Y142258D02*
D03*
D14*
X215954Y140007D02*
D03*
D15*
X168402Y109906D02*
D03*
D16*
X221207Y563441D02*
D03*
D17*
X185245Y559056D02*
D03*
D18*
X215264D02*
D03*
D19*
X178956Y563441D02*
D03*
D20*
X207537Y610980D02*
D03*
X192685D02*
D03*
M02*
